<svg width="59" height="59" viewBox="0 0 59 59" fill="none" xmlns="http://www.w3.org/2000/svg">
<g clip-path="url(#clip0_491_310)">
<path d="M18.2224 29.5C14.9036 29.6097 12.1892 31.0145 10.0792 33.7143H5.96146C4.2816 33.7143 2.86806 33.2698 1.72083 32.3809C0.573611 31.4919 0 30.1914 0 28.4794C0 20.7312 1.27014 16.8571 3.81042 16.8571C3.93333 16.8571 4.37891 17.0876 5.14714 17.5485C5.91536 18.0095 6.91406 18.4759 8.14323 18.9478C9.3724 19.4197 10.5913 19.6557 11.8 19.6557C13.1726 19.6557 14.5349 19.4033 15.887 18.8984C15.7845 19.7106 15.7333 20.4349 15.7333 21.0714C15.7333 24.1224 16.563 26.9319 18.2224 29.5ZM51.1333 50.4727C51.1333 53.1066 50.3856 55.1863 48.8901 56.7118C47.3946 58.2373 45.4075 59 42.9286 59H16.0714C13.5925 59 11.6054 58.2373 10.1099 56.7118C8.61441 55.1863 7.86667 53.1066 7.86667 50.4727C7.86667 49.3093 7.90252 48.1735 7.97422 47.065C8.04592 45.9566 8.18932 44.7603 8.40443 43.4763C8.61953 42.1922 8.89097 41.0015 9.21875 39.904C9.54653 38.8065 9.98698 37.7365 10.5401 36.6939C11.0932 35.6513 11.7283 34.7624 12.4453 34.0271C13.1623 33.2918 14.0381 32.7046 15.0727 32.2656C16.1072 31.8266 17.2493 31.6071 18.499 31.6071C18.7038 31.6071 19.1443 31.8431 19.8203 32.315C20.4964 32.7869 21.2441 33.3137 22.0635 33.8954C22.883 34.477 23.979 35.0038 25.3516 35.4757C26.7241 35.9476 28.1069 36.1836 29.5 36.1836C30.8931 36.1836 32.2759 35.9476 33.6484 35.4757C35.021 35.0038 36.117 34.477 36.9365 33.8954C37.7559 33.3137 38.5036 32.7869 39.1797 32.315C39.8557 31.8431 40.2962 31.6071 40.501 31.6071C41.7507 31.6071 42.8928 31.8266 43.9273 32.2656C44.9619 32.7046 45.8377 33.2918 46.5547 34.0271C47.2717 34.7624 47.9068 35.6513 48.4599 36.6939C49.013 37.7365 49.4535 38.8065 49.7812 39.904C50.109 41.0015 50.3805 42.1922 50.5956 43.4763C50.8107 44.7603 50.9541 45.9566 51.0258 47.065C51.0975 48.1735 51.1333 49.3093 51.1333 50.4727ZM19.6667 8.42857C19.6667 10.7552 18.8984 12.7416 17.362 14.3878C15.8255 16.034 13.9715 16.8571 11.8 16.8571C9.62847 16.8571 7.77448 16.034 6.23802 14.3878C4.70156 12.7416 3.93333 10.7552 3.93333 8.42857C3.93333 6.10193 4.70156 4.11551 6.23802 2.46931C7.77448 0.823103 9.62847 0 11.8 0C13.9715 0 15.8255 0.823103 17.362 2.46931C18.8984 4.11551 19.6667 6.10193 19.6667 8.42857ZM41.3 21.0714C41.3 24.5614 40.1477 27.541 37.843 30.0103C35.5383 32.4796 32.7573 33.7143 29.5 33.7143C26.2427 33.7143 23.4617 32.4796 21.157 30.0103C18.8523 27.541 17.7 24.5614 17.7 21.0714C17.7 17.5815 18.8523 14.6018 21.157 12.1325C23.4617 9.66323 26.2427 8.42857 29.5 8.42857C32.7573 8.42857 35.5383 9.66323 37.843 12.1325C40.1477 14.6018 41.3 17.5815 41.3 21.0714ZM59 28.4794C59 30.1914 58.4264 31.4919 57.2792 32.3809C56.1319 33.2698 54.7184 33.7143 53.0385 33.7143H48.9208C46.8108 31.0145 44.0964 29.6097 40.7776 29.5C42.437 26.9319 43.2667 24.1224 43.2667 21.0714C43.2667 20.4349 43.2155 19.7106 43.113 18.8984C44.4651 19.4033 45.8274 19.6557 47.2 19.6557C48.4087 19.6557 49.6276 19.4197 50.8568 18.9478C52.0859 18.4759 53.0846 18.0095 53.8529 17.5485C54.6211 17.0876 55.0667 16.8571 55.1896 16.8571C57.7299 16.8571 59 20.7312 59 28.4794ZM55.0667 8.42857C55.0667 10.7552 54.2984 12.7416 52.762 14.3878C51.2255 16.034 49.3715 16.8571 47.2 16.8571C45.0285 16.8571 43.1745 16.034 41.638 14.3878C40.1016 12.7416 39.3333 10.7552 39.3333 8.42857C39.3333 6.10193 40.1016 4.11551 41.638 2.46931C43.1745 0.823103 45.0285 0 47.2 0C49.3715 0 51.2255 0.823103 52.762 2.46931C54.2984 4.11551 55.0667 6.10193 55.0667 8.42857Z" fill="white"/>
</g>
<defs>
<clipPath id="clip0_491_310">
<rect width="59" height="59" fill="white"/>
</clipPath>
</defs>
</svg>
