<svg width="33" height="30" viewBox="0 0 33 30" fill="none" xmlns="http://www.w3.org/2000/svg">
<path d="M1.71297 6.78124V5.81249C1.43082 5.81249 1.16022 5.91456 0.960708 6.09623C0.761194 6.27791 0.649109 6.52431 0.649109 6.78124H1.71297ZM14.4793 6.78124H15.5432C15.5432 6.52431 15.4311 6.27791 15.2316 6.09623C15.0321 5.91456 14.7615 5.81249 14.4793 5.81249V6.78124ZM14.4793 28.0937V29.0625C14.7615 29.0625 15.0321 28.9604 15.2316 28.7787C15.4311 28.5971 15.5432 28.3507 15.5432 28.0937H14.4793ZM1.71297 28.0937H0.649109C0.649109 28.3507 0.761194 28.5971 0.960708 28.7787C1.16022 28.9604 1.43082 29.0625 1.71297 29.0625V28.0937ZM18.7348 6.78124V5.81249C18.4527 5.81249 18.1821 5.91456 17.9825 6.09623C17.783 6.27791 17.6709 6.52431 17.6709 6.78124H18.7348ZM31.5012 6.78124H32.565C32.565 6.52431 32.453 6.27791 32.2534 6.09623C32.0539 5.91456 31.7833 5.81249 31.5012 5.81249V6.78124ZM31.5012 18.4062V19.375C31.7833 19.375 32.0539 19.2729 32.2534 19.0912C32.453 18.9096 32.565 18.6632 32.565 18.4062H31.5012ZM18.7348 18.4062H17.6709C17.6709 18.6632 17.783 18.9096 17.9825 19.0912C18.1821 19.2729 18.4527 19.375 18.7348 19.375V18.4062ZM0.649109 1.9375H15.5432V0H0.649109V1.9375ZM17.6709 1.9375H32.565V0H17.6709V1.9375ZM1.71297 7.74999H14.4793V5.81249H1.71297V7.74999ZM13.4155 6.78124V28.0937H15.5432V6.78124H13.4155ZM14.4793 27.125H1.71297V29.0625H14.4793V27.125ZM2.77684 28.0937V6.78124H0.649109L0.649109 28.0937H2.77684ZM18.7348 7.74999H31.5012V5.81249H18.7348V7.74999ZM30.4373 6.78124V18.4062H32.565V6.78124H30.4373ZM31.5012 17.4375H18.7348V19.375H31.5012V17.4375ZM19.7987 18.4062V6.78124H17.6709V18.4062H19.7987Z" fill="#D2D2D2"/>
</svg>
