<svg width="33" height="29" viewBox="0 0 33 29" fill="none" xmlns="http://www.w3.org/2000/svg">
<path d="M25.2029 17.479H6.73157L0.574463 22.8571V1.34454C0.574463 0.987944 0.736636 0.645956 1.02531 0.393806C1.31398 0.141656 1.7055 0 2.11374 0H25.2029C25.6111 0 26.0027 0.141656 26.2913 0.393806C26.58 0.645956 26.7422 0.987944 26.7422 1.34454V16.1345C26.7422 16.491 26.58 16.833 26.2913 17.0852C26.0027 17.3373 25.6111 17.479 25.2029 17.479ZM32.8993 9.41177V28.2353L26.7422 22.8571H9.81013C9.40188 22.8571 9.01036 22.7155 8.72169 22.4633C8.43302 22.2112 8.27085 21.8692 8.27085 21.5126V20.1681H29.8207V8.06723H31.36C31.7682 8.06723 32.1598 8.20888 32.4484 8.46103C32.7371 8.71318 32.8993 9.05517 32.8993 9.41177ZM10.1026 2.68908C8.76342 2.68908 7.68592 2.95798 6.85471 3.48235C6.05429 4.03361 5.65408 4.8 5.66947 5.86219L5.68486 5.90252H8.65567C8.67106 5.49916 8.8096 5.18992 9.08667 4.97479C9.3717 4.76833 9.73239 4.65854 10.1026 4.66555C10.5798 4.66555 10.98 4.8 11.257 5.04202C11.5341 5.29748 11.6573 5.64706 11.6573 6.05042C11.6573 6.48067 11.5495 6.8437 11.3032 7.15294C11.0877 7.46219 10.7645 7.73109 10.3643 7.94622C9.57923 8.40336 9.04049 8.80672 8.74802 9.16975C8.44017 9.51933 8.27085 10.084 8.27085 10.7563H11.3494C11.3494 10.3395 11.411 10.0034 11.5495 9.76134C11.688 9.51933 11.9497 9.27731 12.3345 9.06219C13.0272 8.7395 13.5967 8.34958 14.0431 7.81176C14.4895 7.27395 14.7204 6.72269 14.7204 6.05042C14.7204 5.02857 14.3048 4.2084 13.4736 3.60336C12.6578 2.99832 11.5341 2.68908 10.1026 2.68908ZM8.27085 12.1008V14.7899H11.3494V12.1008H8.27085ZM17.5065 14.7899H20.5851V12.1008H17.5065V14.7899ZM17.5065 2.68908V10.7563H20.5851V2.68908H17.5065Z" fill="#D2D2D2"/>
</svg>
