<svg width="30" height="31" viewBox="0 0 30 31" fill="none" xmlns="http://www.w3.org/2000/svg">
<path d="M30 18.5333V28.133C30 28.7695 29.7742 29.38 29.3724 29.83C28.9705 30.2801 28.4255 30.533 27.8571 30.533H2.14286C1.57454 30.533 1.02949 30.2801 0.627628 29.83C0.225765 29.38 0 28.7695 0 28.133V18.5333C0 17.8968 0.225765 17.2864 0.627628 16.8363C1.02949 16.3863 1.57454 16.1334 2.14286 16.1334H8.57143C8.85559 16.1334 9.12811 16.2598 9.32904 16.4849C9.52997 16.7099 9.64286 17.0151 9.64286 17.3334C9.64286 17.6516 9.52997 17.9568 9.32904 18.1819C9.12811 18.4069 8.85559 18.5333 8.57143 18.5333H2.14286V28.133H27.8571V18.5333H21.4286C21.1444 18.5333 20.8719 18.4069 20.671 18.1819C20.47 17.9568 20.3571 17.6516 20.3571 17.3334C20.3571 17.0151 20.47 16.7099 20.671 16.4849C20.8719 16.2598 21.1444 16.1334 21.4286 16.1334H27.8571C28.4255 16.1334 28.9705 16.3863 29.3724 16.8363C29.7742 17.2864 30 17.8968 30 18.5333ZM9.32946 9.78261L13.9286 4.63027V17.3334C13.9286 17.6516 14.0415 17.9568 14.2424 18.1819C14.4433 18.4069 14.7158 18.5333 15 18.5333C15.2842 18.5333 15.5567 18.4069 15.7576 18.1819C15.9585 17.9568 16.0714 17.6516 16.0714 17.3334V4.63027L20.6705 9.78261C20.8716 10.0078 21.1443 10.1343 21.4286 10.1343C21.7129 10.1343 21.9856 10.0078 22.1866 9.78261C22.3877 9.55745 22.5006 9.25207 22.5006 8.93364C22.5006 8.61521 22.3877 8.30983 22.1866 8.08466L15.758 0.884892C15.6585 0.773324 15.5404 0.684816 15.4103 0.624428C15.2802 0.564041 15.1408 0.532959 15 0.532959C14.8592 0.532959 14.7198 0.564041 14.5897 0.624428C14.4596 0.684816 14.3415 0.773324 14.242 0.884892L7.81339 8.08466C7.61235 8.30983 7.4994 8.61521 7.4994 8.93364C7.4994 9.25207 7.61235 9.55745 7.81339 9.78261C8.01444 10.0078 8.28711 10.1343 8.57143 10.1343C8.85575 10.1343 9.12842 10.0078 9.32946 9.78261ZM24.6429 23.3332C24.6429 22.9772 24.5486 22.6292 24.372 22.3332C24.1954 22.0372 23.9444 21.8065 23.6507 21.6703C23.3571 21.534 23.0339 21.4984 22.7222 21.5678C22.4104 21.6373 22.1241 21.8087 21.8993 22.0604C21.6745 22.3122 21.5215 22.6329 21.4595 22.982C21.3974 23.3312 21.4293 23.6931 21.5509 24.022C21.6725 24.3509 21.8785 24.632 22.1428 24.8298C22.4071 25.0276 22.7179 25.1331 23.0357 25.1331C23.462 25.1331 23.8707 24.9435 24.1721 24.6059C24.4735 24.2684 24.6429 23.8106 24.6429 23.3332Z" fill="#F1F3F5"/>
</svg>
