<svg width="15" height="15" viewBox="0 0 15 15" fill="none" xmlns="http://www.w3.org/2000/svg">
<g clip-path="url(#clip0_302_218)">
<path d="M14.5 0.499998L14.96 0.696998C14.9996 0.605079 15.0107 0.503395 14.9918 0.405103C14.973 0.30681 14.9251 0.216433 14.8543 0.145665C14.7836 0.0748966 14.6932 0.0269943 14.5949 0.00815585C14.4966 -0.0106826 14.3949 0.00040995 14.303 0.0399981L14.5 0.499998ZM0.499986 6.5L0.302986 6.04C0.218189 6.07623 0.145064 6.13521 0.0916956 6.21041C0.0383274 6.28561 0.00679531 6.37411 0.000585763 6.46611C-0.00562379 6.55812 0.0137311 6.65005 0.0565104 6.73174C0.0992897 6.81343 0.163827 6.8817 0.242986 6.929L0.499986 6.5ZM8.49999 14.5L8.07099 14.757C8.11829 14.8362 8.18655 14.9007 8.26825 14.9435C8.34994 14.9863 8.44187 15.0056 8.53387 14.9994C8.62588 14.9932 8.71437 14.9617 8.78957 14.9083C8.86478 14.8549 8.92375 14.7818 8.95999 14.697L8.49999 14.5ZM14.303 0.0399981L0.302986 6.04L0.696986 6.96L14.697 0.959998L14.303 0.0399981ZM0.242986 6.929L5.24299 9.93L5.75699 9.072L0.756986 6.072L0.242986 6.929ZM5.06999 9.757L8.06999 14.757L8.92799 14.243L5.92799 9.243L5.06999 9.757ZM8.95899 14.697L14.959 0.696998L14.039 0.302998L8.03899 14.303L8.95899 14.697ZM14.146 0.146998L5.14599 9.147L5.85399 9.854L14.854 0.853998L14.146 0.146998Z" fill="black"/>
</g>
<defs>
<clipPath id="clip0_302_218">
<rect width="15" height="15" fill="white"/>
</clipPath>
</defs>
</svg>
