<svg width="30" height="30" viewBox="0 0 30 30" fill="none" xmlns="http://www.w3.org/2000/svg">
<path d="M29.5592 28.6133C29.5521 28.6134 29.5454 28.6106 29.5405 28.6057L19.7607 18.7509C19.2933 18.1674 22.0743 17.3728 22.31 11.3784C22.31 11.3334 22.31 11.2884 22.3091 11.2444V11.2509V11.25C22.3091 5.03719 17.3479 0 11.2289 0C11.1772 0 11.1255 0 11.0738 0.0009375H11.0811C4.94824 0.06375 0 5.12625 0 11.3625C0 11.4216 0.000923352 11.4816 0.000923352 11.5406V11.5313C0.000923352 17.7441 4.96209 22.7812 11.0811 22.7812C11.1698 22.7841 11.2741 22.785 11.3785 22.785C14.1024 22.785 16.5889 21.7528 18.479 20.0522C18.473 20.0578 18.4728 20.0674 18.4786 20.0733L27.853 29.5913C28.0743 29.816 28.4367 29.816 28.658 29.5913L29.5779 28.6573C29.5941 28.6409 29.5823 28.613 29.5592 28.6133ZM11.0811 20.8697C5.98148 20.8697 1.84763 16.6725 1.84763 11.4947C1.84763 11.4891 1.84763 11.4825 1.84763 11.475C1.84763 6.27469 5.96855 2.05125 11.0756 1.98844H11.0811C16.1808 1.98844 20.3147 6.18563 20.3147 11.3634C20.3045 16.5638 16.1919 20.7853 11.0885 20.8697H11.0811Z" fill="#343A40"/>
</svg>
