<svg width="402" height="270" viewBox="0 0 402 270" fill="none" xmlns="http://www.w3.org/2000/svg">
<rect width="402" height="270" rx="20" fill="#F54952"/>
<rect x="30" y="30" width="342" height="210" rx="5" fill="#D9D9D9"/>
<path d="M192.75 151.5H176.25C176.25 131.808 184.073 112.922 197.997 98.9973C211.922 85.0727 230.808 77.25 250.5 77.25V93.75C218.573 93.75 192.75 119.573 192.75 151.5ZM250.5 126.75V110.25C227.73 110.25 209.25 128.73 209.25 151.5H225.75C225.75 137.805 236.805 126.75 250.5 126.75ZM159.75 69C159.75 59.8425 152.408 52.5 143.25 52.5C134.092 52.5 126.75 59.8425 126.75 69C126.75 78.1575 134.092 85.5 143.25 85.5C152.408 85.5 159.75 78.1575 159.75 69ZM196.462 73.125H179.962C179.021 78.8952 176.054 84.141 171.593 87.9209C167.133 91.7008 161.472 93.7675 155.625 93.75H130.875C124.028 93.75 118.5 99.2775 118.5 106.125V126.75H168V108.105C175.638 105.685 182.402 101.084 187.46 94.8692C192.517 88.6541 195.646 81.0959 196.462 73.125ZM258.75 176.25C267.908 176.25 275.25 168.908 275.25 159.75C275.25 150.592 267.908 143.25 258.75 143.25C249.592 143.25 242.25 150.592 242.25 159.75C242.25 168.908 249.592 176.25 258.75 176.25ZM271.125 184.5H246.375C234 184.5 224.018 175.59 222.038 163.875H205.538C207.188 180.375 218.655 193.987 234 198.855V217.5H283.5V196.875C283.5 190.028 277.972 184.5 271.125 184.5Z" fill="#660F56"/>
</svg>
