<svg width="402" height="270" viewBox="0 0 402 270" fill="none" xmlns="http://www.w3.org/2000/svg">
<rect width="402" height="270" rx="20" fill="#F54952"/>
<rect x="30" y="30" width="100.667" height="210" rx="5" fill="#D9D9D9"/>
<path d="M65.9951 60V54.14H63.7651V53H69.4551V54.14H67.2251V60H65.9951ZM73.7091 60.12C71.5591 60.12 70.0591 58.49 70.0591 56.52V56.5C70.0591 54.54 71.5791 52.88 73.7291 52.88C75.8791 52.88 77.3791 54.51 77.3791 56.48V56.5C77.3791 58.46 75.8591 60.12 73.7091 60.12ZM73.7291 58.98C75.1191 58.98 76.0891 57.88 76.0891 56.52V56.5C76.0891 55.14 75.1091 54.02 73.7091 54.02C72.3191 54.02 71.3491 55.12 71.3491 56.48V56.5C71.3491 57.86 72.3291 58.98 73.7291 58.98ZM81.8632 60V53H84.4732C86.6732 53 88.1932 54.51 88.1932 56.48V56.5C88.1932 58.47 86.6732 60 84.4732 60H81.8632ZM84.4732 54.12H83.0932V58.88H84.4732C85.9432 58.88 86.9032 57.89 86.9032 56.52V56.5C86.9032 55.13 85.9432 54.12 84.4732 54.12ZM93.0255 60.12C90.8755 60.12 89.3755 58.49 89.3755 56.52V56.5C89.3755 54.54 90.8955 52.88 93.0455 52.88C95.1955 52.88 96.6955 54.51 96.6955 56.48V56.5C96.6955 58.46 95.1755 60.12 93.0255 60.12ZM93.0455 58.98C94.4355 58.98 95.4055 57.88 95.4055 56.52V56.5C95.4055 55.14 94.4255 54.02 93.0255 54.02C91.6355 54.02 90.6655 55.12 90.6655 56.48V56.5C90.6655 57.86 91.6455 58.98 93.0455 58.98Z" fill="#660F56"/>
<rect x="45.3333" y="72.8" width="70" height="17" rx="3" fill="#660F56"/>
<rect x="45.3333" y="100.6" width="70" height="17" rx="3" fill="#660F56"/>
<rect x="45.3333" y="128.4" width="70" height="17" rx="3" fill="#660F56"/>
<rect x="45.3333" y="156.2" width="70" height="17" rx="3" fill="#660F56"/>
<rect x="45.3333" y="184" width="70" height="17" rx="3" fill="#660F56"/>
<rect x="150.667" y="30" width="100.667" height="210" rx="5" fill="#D9D9D9"/>
<path d="M184.283 60V53H186.893C189.093 53 190.613 54.51 190.613 56.48V56.5C190.613 58.47 189.093 60 186.893 60H184.283ZM186.893 54.12H185.513V58.88H186.893C188.363 58.88 189.323 57.89 189.323 56.52V56.5C189.323 55.13 188.363 54.12 186.893 54.12ZM195.445 60.12C193.295 60.12 191.795 58.49 191.795 56.52V56.5C191.795 54.54 193.315 52.88 195.465 52.88C197.615 52.88 199.115 54.51 199.115 56.48V56.5C199.115 58.46 197.595 60.12 195.445 60.12ZM195.465 58.98C196.855 58.98 197.825 57.88 197.825 56.52V56.5C197.825 55.14 196.845 54.02 195.445 54.02C194.055 54.02 193.085 55.12 193.085 56.48V56.5C193.085 57.86 194.065 58.98 195.465 58.98ZM200.671 60V53H201.901V60H200.671ZM203.775 60V53H204.915L208.665 57.84V53H209.875V60H208.845L204.985 55.02V60H203.775ZM214.995 60.12C212.805 60.12 211.365 58.56 211.365 56.52V56.5C211.365 54.54 212.855 52.88 214.975 52.88C216.185 52.88 216.945 53.22 217.665 53.83L216.885 54.76C216.345 54.3 215.805 54.02 214.925 54.02C213.645 54.02 212.655 55.14 212.655 56.48V56.5C212.655 57.94 213.605 59 215.035 59C215.705 59 216.295 58.79 216.725 58.47V57.17H214.935V56.09H217.915V59.03C217.215 59.62 216.235 60.12 214.995 60.12Z" fill="#660F56"/>
<rect x="166" y="72.8" width="70" height="17" rx="3" fill="#660F56"/>
<rect x="166" y="100.6" width="70" height="17" rx="3" fill="#660F56"/>
<rect x="166" y="128.4" width="70" height="17" rx="3" fill="#660F56"/>
<rect x="166" y="156.2" width="70" height="17" rx="3" fill="#660F56"/>
<rect x="166" y="184" width="70" height="17" rx="3" fill="#660F56"/>
<rect x="271.333" y="30" width="100.667" height="210" rx="5" fill="#D9D9D9"/>
<path d="M307.108 60V53H309.718C311.918 53 313.438 54.51 313.438 56.48V56.5C313.438 58.47 311.918 60 309.718 60H307.108ZM309.718 54.12H308.338V58.88H309.718C311.188 58.88 312.148 57.89 312.148 56.52V56.5C312.148 55.13 311.188 54.12 309.718 54.12ZM318.27 60.12C316.12 60.12 314.62 58.49 314.62 56.52V56.5C314.62 54.54 316.14 52.88 318.29 52.88C320.44 52.88 321.94 54.51 321.94 56.48V56.5C321.94 58.46 320.42 60.12 318.27 60.12ZM318.29 58.98C319.68 58.98 320.65 57.88 320.65 56.52V56.5C320.65 55.14 319.67 54.02 318.27 54.02C316.88 54.02 315.91 55.12 315.91 56.48V56.5C315.91 57.86 316.89 58.98 318.29 58.98ZM323.426 60V53H324.566L328.316 57.84V53H329.526V60H328.496L324.636 55.02V60H323.426ZM331.326 60V53H336.516V54.1H332.556V55.92H336.066V57.03H332.556V58.9H336.566V60H331.326Z" fill="#660F56"/>
<rect x="286.667" y="72.8" width="70" height="17" rx="3" fill="#660F56"/>
<rect x="286.667" y="100.6" width="70" height="17" rx="3" fill="#660F56"/>
<rect x="286.667" y="128.4" width="70" height="17" rx="3" fill="#660F56"/>
<rect x="286.667" y="156.2" width="70" height="17" rx="3" fill="#660F56"/>
<rect x="286.667" y="184" width="70" height="17" rx="3" fill="#660F56"/>
</svg>
