<svg width="28" height="26" viewBox="0 0 28 26" fill="none" xmlns="http://www.w3.org/2000/svg">
<path d="M12.8333 9.75002H15.1666V7.58335H12.8333M13.9999 21.6667C8.85492 21.6667 4.66659 17.7775 4.66659 13C4.66659 8.22252 8.85492 4.33335 13.9999 4.33335C19.1449 4.33335 23.3333 8.22252 23.3333 13C23.3333 17.7775 19.1449 21.6667 13.9999 21.6667ZM13.9999 2.16669C12.4678 2.16669 10.9507 2.4469 9.53528 2.99133C8.11981 3.53575 6.83369 4.33373 5.75034 5.3397C3.56242 7.37134 2.33325 10.1268 2.33325 13C2.33325 15.8732 3.56242 18.6287 5.75034 20.6603C6.83369 21.6663 8.11981 22.4643 9.53528 23.0087C10.9507 23.5531 12.4678 23.8334 13.9999 23.8334C17.0941 23.8334 20.0616 22.692 22.2495 20.6603C24.4374 18.6287 25.6666 15.8732 25.6666 13C25.6666 11.5774 25.3648 10.1686 24.7785 8.85428C24.1922 7.53992 23.3328 6.34566 22.2495 5.3397C21.1661 4.33373 19.88 3.53575 18.4646 2.99133C17.0491 2.4469 15.532 2.16669 13.9999 2.16669ZM12.8333 18.4167H15.1666V11.9167H12.8333V18.4167Z" fill="#F54952"/>
</svg>
