<svg width="33" height="29" viewBox="0 0 33 29" fill="none" xmlns="http://www.w3.org/2000/svg">
<path d="M10.932 13.2727C12.8006 13.2727 14.5926 12.6262 15.9139 11.4754C17.2352 10.3246 17.9774 8.76383 17.9774 7.13636C17.9774 5.5089 17.2352 3.94809 15.9139 2.7973C14.5926 1.64651 12.8006 1 10.932 1C9.06342 1 7.27139 1.64651 5.95011 2.7973C4.62883 3.94809 3.88654 5.5089 3.88654 7.13636C3.88654 8.76383 4.62883 10.3246 5.95011 11.4754C7.27139 12.6262 9.06342 13.2727 10.932 13.2727ZM10.932 13.2727C13.7685 13.2727 16.2471 14.2055 18.0099 15.7555M10.932 13.2727C5.29563 13.2727 1.06836 16.9545 1.06836 21.8636V28H10.932M32.0684 18.1818L27.8411 14.5L19.3865 21.8636M24.3184 17.5682L28.5456 21.25M13.7502 23.7045C13.7506 24.5186 14.1222 25.2992 14.7834 25.8746C15.4445 26.45 16.3411 26.7731 17.2757 26.7727C18.2104 26.7724 19.1066 26.4487 19.7672 25.8729C20.4279 25.297 20.7988 24.5161 20.7984 23.7021C20.7981 22.888 20.4264 22.1074 19.7653 21.5321C19.1041 20.9567 18.2076 20.6336 17.2729 20.6339C16.3382 20.6342 15.442 20.9579 14.7814 21.5338C14.1207 22.1096 13.7498 22.8905 13.7502 23.7045Z" stroke="#F54952" stroke-width="2"/>
</svg>
