<svg width="34" height="33" viewBox="0 0 34 33" fill="none" xmlns="http://www.w3.org/2000/svg">
<path d="M15.75 19.5H12.9167C12.9167 16.2179 14.26 13.0703 16.6511 10.7496C19.0421 8.42879 22.2852 7.125 25.6667 7.125V9.875C20.1842 9.875 15.75 14.1788 15.75 19.5ZM25.6667 15.375V12.625C21.7567 12.625 18.5833 15.705 18.5833 19.5H21.4167C21.4167 17.2175 23.315 15.375 25.6667 15.375ZM10.0833 5.75C10.0833 4.22375 8.8225 3 7.25 3C5.6775 3 4.41667 4.22375 4.41667 5.75C4.41667 7.27625 5.6775 8.5 7.25 8.5C8.8225 8.5 10.0833 7.27625 10.0833 5.75ZM16.3875 6.4375H13.5542C13.3925 7.3992 12.8829 8.2735 12.117 8.90348C11.3511 9.53347 10.379 9.87791 9.375 9.875H5.125C3.94917 9.875 3 10.7962 3 11.9375V15.375H11.5V12.2675C12.8116 11.8642 13.9732 11.0974 14.8415 10.0615C15.7099 9.02568 16.2473 7.76598 16.3875 6.4375ZM27.0833 23.625C28.6558 23.625 29.9167 22.4013 29.9167 20.875C29.9167 19.3487 28.6558 18.125 27.0833 18.125C25.5108 18.125 24.25 19.3487 24.25 20.875C24.25 22.4013 25.5108 23.625 27.0833 23.625ZM29.2083 25H24.9583C22.8333 25 21.1192 23.515 20.7792 21.5625H17.9458C18.2292 24.3125 20.1983 26.5812 22.8333 27.3925V30.5H31.3333V27.0625C31.3333 25.9212 30.3842 25 29.2083 25Z" fill="#F54952"/>
</svg>
