<svg width="33" height="34" viewBox="0 0 33 34" fill="none" xmlns="http://www.w3.org/2000/svg">
<path fill-rule="evenodd" clip-rule="evenodd" d="M10.9559 10.4316C10.7867 10.7465 10.5572 11.0226 10.2813 11.2433C10.0054 11.4639 9.6888 11.6245 9.3508 11.7153C9.0128 11.8061 8.66043 11.8251 8.31506 11.7713C7.9697 11.7175 7.63855 11.592 7.3417 11.4023C7.04486 11.2127 6.78853 10.9628 6.58825 10.668C6.38798 10.3731 6.24794 10.0394 6.17664 9.68713C6.10535 9.33483 6.10428 8.97128 6.1735 8.61854C6.24272 8.2658 6.38078 7.93124 6.57932 7.63515C6.95311 7.06845 7.52499 6.67249 8.17548 6.53C8.82596 6.38751 9.50472 6.5095 10.07 6.8705C10.6352 7.23149 11.0432 7.80356 11.2087 8.46718C11.3742 9.1308 11.2843 9.83464 10.958 10.4316M6.57726 23.5684C6.39876 23.8649 6.2787 24.1947 6.22393 24.539C6.16915 24.8833 6.18073 25.2354 6.25801 25.5751C6.33529 25.9148 6.47675 26.2355 6.67432 26.5188C6.87189 26.8022 7.12169 27.0427 7.40947 27.2266C7.69725 27.4105 8.01737 27.5342 8.35155 27.5906C8.68573 27.6471 9.02743 27.6351 9.35713 27.5555C9.68683 27.4759 9.99809 27.3301 10.2731 27.1266C10.5482 26.923 10.7816 26.6656 10.9601 26.3691C11.3205 25.7703 11.4354 25.0485 11.2793 24.3625C11.1232 23.6764 10.709 23.0824 10.1278 22.711C9.54665 22.3396 8.84606 22.2212 8.18019 22.382C7.51433 22.5428 6.93773 22.9696 6.57726 23.5684ZM10.3124 19.346V14.654C11.6301 14.2693 12.7683 13.4066 13.5169 12.225C14.2655 11.0434 14.574 9.62268 14.3855 8.22506C14.197 6.82744 13.5243 5.54722 12.4914 4.62065C11.4584 3.69409 10.1351 3.18372 8.76557 3.18372C7.39602 3.18372 6.07269 3.69409 5.03978 4.62065C4.00687 5.54722 3.3341 6.82744 3.14562 8.22506C2.95714 9.62268 3.26567 11.0434 4.01427 12.225C4.76287 13.4066 5.90102 14.2693 7.21869 14.654V19.346C6.26676 19.6235 5.40179 20.1526 4.70958 20.8808C4.01738 21.609 3.52201 22.511 3.27261 23.4974C3.02321 24.4837 3.02846 25.5201 3.28783 26.5038C3.5472 27.4874 4.05168 28.384 4.75121 29.1048C5.45075 29.8255 6.32103 30.3453 7.27572 30.6125C8.23041 30.8797 9.23633 30.8851 10.1937 30.6282C11.151 30.3712 12.0265 29.8608 12.7333 29.1477C13.4401 28.4345 13.9536 27.5433 14.2229 26.5625H19.5937C21.2276 26.5626 22.7952 25.8967 23.9544 24.7104C25.1136 23.524 25.7703 21.9134 25.7812 20.23V14.6519C27.0958 14.2646 28.2305 13.4013 28.9764 12.2207C29.7224 11.0402 30.0295 9.62176 29.8413 8.22646C29.6531 6.83116 28.9821 5.55282 27.952 4.62661C26.9218 3.70039 25.6016 3.1886 24.2343 3.1854C22.8637 3.18312 21.5387 3.69227 20.5042 4.61868C19.4698 5.54509 18.7959 6.82609 18.6073 8.22478C18.4186 9.62348 18.7279 11.0452 19.478 12.2272C20.2281 13.4091 21.3682 14.2712 22.6874 14.654V20.1875C22.6874 21.0329 22.3615 21.8437 21.7813 22.4414C21.2011 23.0392 20.4142 23.375 19.5937 23.375H14.2229C13.9572 22.4164 13.4587 21.5433 12.7745 20.8384C12.0902 20.1334 11.2429 19.6198 10.3124 19.346ZM26.4247 10.4316C26.7852 9.83284 26.9 9.11101 26.7439 8.42497C26.5879 7.73893 26.1737 7.14486 25.5925 6.77346C25.0113 6.40206 24.3107 6.28374 23.6448 6.44454C22.979 6.60534 22.4024 7.03209 22.0419 7.6309C21.8634 7.9274 21.7433 8.25721 21.6886 8.60152C21.6338 8.94583 21.6454 9.29788 21.7226 9.63757C21.7999 9.97726 21.9414 10.2979 22.1389 10.5813C22.3365 10.8647 22.5863 11.1052 22.8741 11.2891C23.4553 11.6605 24.1559 11.7788 24.8218 11.618C25.4876 11.4572 26.0642 11.0305 26.4247 10.4316Z" fill="#F54952"/>
</svg>
