<svg width="33" height="31" viewBox="0 0 33 31" fill="none" xmlns="http://www.w3.org/2000/svg">
<path d="M5.5 15.5L16.5 5.16669L27.5 15.5M8.25 13.5625V24.5417C8.25 24.8843 8.39487 25.2128 8.65273 25.455C8.91059 25.6973 9.26033 25.8334 9.625 25.8334H13.75V21.9584C13.75 21.6158 13.8949 21.2872 14.1527 21.045C14.4106 20.8028 14.7603 20.6667 15.125 20.6667H17.875C18.2397 20.6667 18.5894 20.8028 18.8473 21.045C19.1051 21.2872 19.25 21.6158 19.25 21.9584V25.8334H23.375C23.7397 25.8334 24.0894 25.6973 24.3473 25.455C24.6051 25.2128 24.75 24.8843 24.75 24.5417V13.5625" stroke="#F54952" stroke-width="2" stroke-linecap="round" stroke-linejoin="round"/>
</svg>
