<svg width="33" height="30" viewBox="0 0 33 30" fill="none" xmlns="http://www.w3.org/2000/svg">
<path d="M23.3818 30V24.6981H18.0058V21.1635H23.3818V15.8616H26.9658V21.1635H32.3418V24.6981H26.9658V30H23.3818ZM0.085907 24.7423V21.2077H3.66989V24.7423H0.085907ZM7.25388 24.7423V21.2077H14.5563C14.4667 21.8262 14.4296 22.4153 14.4451 22.975C14.4607 23.5346 14.5126 24.1237 14.6011 24.7423H7.25388ZM0.085907 17.673V14.1384H3.66989V17.673H0.085907ZM7.25388 17.673V14.1384H19.1706C18.4837 14.6097 17.8643 15.1399 17.3123 15.729C16.7604 16.3181 16.2748 16.9661 15.8554 17.673H7.25388ZM0.085907 10.6038V7.06922H3.66989V10.6038H0.085907ZM7.25388 10.6038V7.06922H28.7578V10.6038H7.25388ZM0.085907 3.53461V0H3.66989V3.53461H0.085907ZM7.25388 3.53461V0H28.7578V3.53461H7.25388Z" fill="#D2D2D2"/>
</svg>
