<svg width="32" height="32" viewBox="0 0 32 32" fill="none" xmlns="http://www.w3.org/2000/svg">
<path d="M1 16L16 1L31 16M4.75 13.1875V29.125C4.75 29.6223 4.94754 30.0992 5.29918 30.4508C5.65081 30.8025 6.12772 31 6.625 31H12.25V25.375C12.25 24.8777 12.4475 24.4008 12.7992 24.0492C13.1508 23.6975 13.6277 23.5 14.125 23.5H17.875C18.3723 23.5 18.8492 23.6975 19.2008 24.0492C19.5525 24.4008 19.75 24.8777 19.75 25.375V31H25.375C25.8723 31 26.3492 30.8025 26.7008 30.4508C27.0525 30.0992 27.25 29.6223 27.25 29.125V13.1875" stroke="#D2D2D2" stroke-width="2" stroke-linecap="round" stroke-linejoin="round"/>
</svg>
