<svg width="33" height="30" viewBox="0 0 33 30" fill="none" xmlns="http://www.w3.org/2000/svg">
<path d="M15.0567 7.66118H24.5304M8.74088 7.66118H10.3198M8.74088 15.0625H10.3198M8.74088 22.4638H10.3198M15.0567 15.0625H24.5304M15.0567 22.4638H24.5304M1.63562 15.0625C1.63562 8.43387 1.63562 5.11809 3.83194 3.05904C6.02825 1 9.56351 1 16.6356 1C23.7061 1 27.243 1 29.4393 3.05904C31.6356 5.11809 31.6356 8.43239 31.6356 15.0625C31.6356 21.6911 31.6356 25.0069 29.4393 27.0659C27.243 29.125 23.7077 29.125 16.6356 29.125C9.56509 29.125 6.02825 29.125 3.83194 27.0659C1.63562 25.0069 1.63562 21.6926 1.63562 15.0625Z" stroke="#D2D2D2" stroke-width="1.5" stroke-linecap="round" stroke-linejoin="round"/>
</svg>
