<svg width="620" height="652" viewBox="0 0 620 652" fill="none" xmlns="http://www.w3.org/2000/svg">
<path d="M347.609 509.421H310V509.746H347.609V509.421Z" fill="#EBEBEB"/>
<path d="M442.395 509.421H352.991V509.746H442.395V509.421Z" fill="#EBEBEB"/>
<path d="M217.831 498.65H212.871C213.108 492.985 213.734 487.346 214.743 481.776C218.687 455.813 224.663 416.576 193.812 371.862C175.559 345.404 156.687 306.336 170.475 270.528C183.148 237.615 220.906 215.16 282.72 203.737C371.207 187.398 424.08 159.753 435.538 123.88C442.631 101.712 433.715 76.2579 409.039 48.3392L412.672 44.7924C438.712 74.2106 447.95 101.386 440.237 125.536C428.147 163.352 373.972 192.236 283.563 208.992C223.56 220.076 187.054 241.475 175.076 272.601C162.143 306.192 180.309 343.526 197.83 368.928C229.884 415.402 223.473 457.534 219.641 482.715C218.682 487.975 218.077 493.3 217.831 498.65Z" fill="#F5F5F5"/>
<path d="M179.118 259.118C193.242 236.167 193.105 208.627 180.358 188.245C148.664 218.016 179.118 259.118 179.118 259.118Z" fill="#F5F5F5"/>
<path d="M281.368 206.827C311.823 193.97 344.236 200.803 365.143 222.475C322.4 256.432 281.368 206.827 281.368 206.827Z" fill="#F5F5F5"/>
<path d="M493.235 87.055C482.298 111.714 460.139 126.175 437.026 125.562C444.18 81.7738 493.235 87.055 493.235 87.055Z" fill="#F5F5F5"/>
<path d="M206.448 388.24C194.568 372.188 192.994 351.728 201.24 335.78C226.511 355.705 206.448 388.24 206.448 388.24Z" fill="#F5F5F5"/>
<path d="M423.349 61.6009C404.005 61.8878 387.537 50.9081 380.383 34.3604C410.738 25.1541 423.349 61.6009 423.349 61.6009Z" fill="#F5F5F5"/>
<path d="M515.704 498.65H512.38C512.38 486.092 502.274 478.725 491.573 470.927C477.4 460.573 461.28 448.824 473.271 422.926C479.074 410.421 488.597 400.758 497.81 391.409C520.775 368.093 540.615 347.959 498.058 292.018C459.556 241.396 444.428 201.572 454.311 176.848C460.623 161.07 476.768 151.707 502.299 149.021L502.622 152.516C478.404 155.124 463.19 163.704 457.386 178.205C448 201.677 462.966 240.275 500.662 289.827C545.116 348.272 523.255 370.453 500.117 393.938C491.114 403.066 481.802 412.52 476.272 424.465C465.521 447.663 479.099 457.561 493.47 468.045C504.407 475.96 515.704 484.266 515.704 498.65Z" fill="#F5F5F5"/>
<path d="M519.56 368.484C522.139 350.32 533.832 336.51 548.886 332.22C552.259 361.99 519.56 368.484 519.56 368.484Z" fill="#F5F5F5"/>
<path d="M500.03 292.005C490.11 271.31 470.89 259.626 451.236 260.709C458.391 297.834 500.03 292.005 500.03 292.005Z" fill="#F5F5F5"/>
<path d="M443.833 132.734C438.935 150.273 444.007 167.942 455.899 178.374C470.779 152.985 443.833 132.734 443.833 132.734Z" fill="#F5F5F5"/>
<path d="M473.469 427.073C480.426 415.533 480.24 401.775 473.755 391.643C458.081 406.678 473.469 427.073 473.469 427.073Z" fill="#F5F5F5"/>
<path d="M489.8 152.568C499.422 161.696 512.356 163.9 522.945 158.892C511.537 140.063 489.8 152.568 489.8 152.568Z" fill="#F5F5F5"/>
<path d="M298.133 498.65H294.55C294.55 485.127 283.662 477.186 272.13 468.775C256.829 457.626 239.494 444.977 252.427 417.071C258.627 403.614 268.919 393.195 278.839 383.167C303.639 358.052 324.967 336.354 279.124 276.096C237.634 221.563 221.34 178.661 232.004 152.02C238.799 135.068 256.196 124.949 283.7 122.028L284.047 125.784C258.007 128.522 241.564 137.846 235.315 153.455C225.209 178.739 241.329 220.324 281.939 273.71C329.828 336.667 306.28 360.556 281.344 385.854C271.647 395.699 261.628 405.87 255.663 418.74C244.082 443.738 258.701 454.405 274.189 465.684C285.956 474.265 298.133 483.145 298.133 498.65Z" fill="#F5F5F5"/>
<path d="M302.287 358.43C305.053 338.87 317.651 323.992 333.87 319.31C337.503 351.428 302.287 358.43 302.287 358.43Z" fill="#F5F5F5"/>
<path d="M281.244 276.044C270.556 253.745 249.848 241.162 228.668 242.374C236.394 282.316 281.244 276.044 281.244 276.044Z" fill="#F5F5F5"/>
<path d="M220.72 104.463C215.45 123.358 220.906 142.279 233.728 153.65C249.736 126.279 220.72 104.463 220.72 104.463Z" fill="#F5F5F5"/>
<path d="M252.638 421.544C260.078 409.117 259.917 394.29 252.935 383.376C236.047 399.572 252.638 421.544 252.638 421.544Z" fill="#F5F5F5"/>
<path d="M270.221 125.797C280.587 135.681 294.513 138.002 305.921 132.617C293.632 112.353 270.221 125.797 270.221 125.797Z" fill="#F5F5F5"/>
<path d="M101.965 152.998L124.633 176.835C124.633 176.835 119.846 210.309 109.963 200.307C100.08 190.306 102.189 184.255 102.189 184.255C102.189 184.255 82.9313 195.6 76.7933 172.467C70.6553 149.334 101.965 152.998 101.965 152.998Z" fill="#EBEBEB"/>
<path d="M101.965 152.998L124.632 176.835C124.632 176.835 156.476 171.802 146.952 161.409C137.429 151.016 131.7 153.233 131.7 153.233C131.7 153.233 142.426 133.008 120.478 126.488C98.5304 119.968 101.965 152.998 101.965 152.998Z" fill="#FAFAFA"/>
<path d="M100.49 155.202C102.462 155.202 104.061 153.521 104.061 151.447C104.061 149.372 102.462 147.691 100.49 147.691C98.5173 147.691 96.9185 149.372 96.9185 151.447C96.9185 153.521 98.5173 155.202 100.49 155.202Z" fill="#E0E0E0"/>
<path d="M126.182 178.452C125.952 178.697 125.678 178.891 125.375 179.023C125.073 179.156 124.749 179.224 124.422 179.224C124.094 179.224 123.77 179.156 123.468 179.023C123.166 178.891 122.891 178.697 122.661 178.452L99.9812 153.077L102.052 150.899L126.12 174.736C126.359 174.974 126.55 175.26 126.682 175.577C126.815 175.893 126.886 176.235 126.891 176.581C126.897 176.926 126.837 177.27 126.716 177.591C126.594 177.913 126.413 178.205 126.182 178.452Z" fill="#E0E0E0"/>
<path d="M530.72 214.769L519.56 237.093C519.56 237.093 495.74 240.888 500.328 231.251C504.916 221.615 509.528 221.862 509.528 221.862C509.528 221.862 497.624 209.853 512.008 200.138C526.392 190.423 530.72 214.769 530.72 214.769Z" fill="#FAFAFA"/>
<path d="M530.72 214.769L519.56 237.093C519.56 237.093 530.026 259.913 534.998 250.498C539.97 241.084 537.18 237.224 537.18 237.224C537.18 237.224 553.3 240.784 552.866 222.88C552.432 204.976 530.72 214.769 530.72 214.769Z" fill="#F0F0F0"/>
<path d="M533.832 214.638C533.585 215.131 533.204 215.535 532.738 215.799C532.272 216.064 531.741 216.177 531.214 216.125C530.687 216.073 530.186 215.858 529.775 215.506C529.364 215.155 529.061 214.683 528.905 214.151C528.749 213.618 528.747 213.049 528.898 212.516C529.05 211.982 529.348 211.507 529.756 211.152C530.164 210.797 530.663 210.576 531.19 210.519C531.717 210.462 532.248 210.57 532.716 210.831C533.029 211.002 533.306 211.237 533.531 211.522C533.756 211.807 533.926 212.136 534.03 212.49C534.133 212.844 534.169 213.216 534.135 213.585C534.102 213.954 533.999 214.312 533.832 214.638Z" fill="#E0E0E0"/>
<path d="M518.779 238.632C518.352 238.389 518.034 237.978 517.895 237.489C517.756 237.001 517.806 236.474 518.035 236.024L530.249 213.374L532.183 214.456L521.284 237.824C521.172 238.051 521.017 238.253 520.83 238.418C520.643 238.582 520.426 238.705 520.193 238.781C519.96 238.856 519.714 238.882 519.472 238.856C519.229 238.831 518.993 238.754 518.779 238.632Z" fill="#E0E0E0"/>
<path d="M208.159 62.1747L200.322 77.8227C200.322 77.8227 183.656 80.4307 186.868 73.7412C190.08 67.0517 193.304 67.2212 193.304 67.2212C193.304 67.2212 184.971 58.8234 195.002 52.0296C205.034 45.2358 208.159 62.1747 208.159 62.1747Z" fill="#FAFAFA"/>
<path d="M208.159 62.1747L200.322 77.8227C200.322 77.8227 207.638 93.7967 211.122 87.2115C214.607 80.6263 212.648 77.914 212.648 77.914C212.648 77.914 223.944 80.4046 223.622 67.8602C223.299 55.3157 208.159 62.1747 208.159 62.1747Z" fill="#F0F0F0"/>
<path d="M210.329 62.0704C210.163 62.4216 209.9 62.7126 209.575 62.9058C209.25 63.0991 208.878 63.1859 208.506 63.1551C208.134 63.1243 207.779 62.9773 207.487 62.7329C207.195 62.4886 206.979 62.158 206.867 61.7837C206.755 61.4094 206.752 61.0084 206.858 60.6322C206.964 60.2559 207.175 59.9216 207.463 59.6721C207.751 59.4227 208.103 59.2694 208.475 59.232C208.846 59.1947 209.22 59.2749 209.548 59.4624C209.974 59.7061 210.293 60.1141 210.439 60.6005C210.585 61.087 210.545 61.6139 210.329 62.0704Z" fill="#E0E0E0"/>
<path d="M199.789 78.8398C199.626 78.7617 199.481 78.6474 199.364 78.5048C199.247 78.3623 199.161 78.1948 199.112 78.0139C199.062 77.833 199.051 77.643 199.078 77.4569C199.105 77.2709 199.17 77.0931 199.268 76.9359L207.812 61.0923L209.163 61.8356L201.55 78.2399C201.479 78.4081 201.376 78.5588 201.246 78.6819C201.116 78.8051 200.963 78.8981 200.797 78.9547C200.631 79.0114 200.455 79.0304 200.281 79.0106C200.107 78.9908 199.94 78.9326 199.789 78.8398Z" fill="#E0E0E0"/>
<path d="M310 557.538C442.782 557.538 550.424 550.929 550.424 542.777C550.424 534.624 442.782 528.016 310 528.016C177.218 528.016 69.5764 534.624 69.5764 542.777C69.5764 550.929 177.218 557.538 310 557.538Z" fill="#F5F5F5"/>
<path d="M460.499 240.366C494.041 148.552 413.949 63.6743 310.719 94.1749C264.938 107.697 247.268 154.159 236.394 204.78C229.871 217.742 216.417 240.992 197.606 255.727C196.283 256.761 195.198 258.097 194.435 259.634C193.671 261.171 193.248 262.869 193.196 264.602C193.145 266.336 193.467 268.059 194.139 269.643C194.81 271.226 195.813 272.63 197.073 273.749C205.269 280.999 215.487 283.776 221.6 284.82C219.926 292.97 218.116 300.781 216.045 308.096C202.616 355.692 241.329 380.181 284.989 384.81C287.758 400.001 288.567 415.515 287.395 430.933C285.894 451.249 303.515 467.328 322.524 463.298L408.084 445.133C415.159 443.639 421.462 439.457 425.792 433.387C430.122 427.316 432.174 419.781 431.557 412.22C428.53 373.225 428.464 334.037 431.359 295.03C441.266 282.72 450.914 266.564 460.499 240.366Z" fill="#AE2D68"/>
<path opacity="0.6" d="M460.499 240.366C494.041 148.552 413.949 63.6743 310.719 94.1749C264.938 107.697 247.268 154.159 236.394 204.78C229.871 217.742 216.417 240.992 197.606 255.727C196.283 256.761 195.198 258.097 194.435 259.634C193.671 261.171 193.248 262.869 193.196 264.602C193.145 266.336 193.467 268.059 194.139 269.643C194.81 271.226 195.813 272.63 197.073 273.749C205.269 280.999 215.487 283.776 221.6 284.82C219.926 292.97 218.116 300.781 216.045 308.096C202.616 355.692 241.329 380.181 284.989 384.81C287.758 400.001 288.567 415.515 287.395 430.933C285.894 451.249 303.515 467.328 322.524 463.298L408.084 445.133C415.159 443.639 421.462 439.457 425.792 433.387C430.122 427.316 432.174 419.781 431.557 412.22C428.53 373.225 428.464 334.037 431.359 295.03C441.266 282.72 450.914 266.564 460.499 240.366Z" fill="white"/>
<path d="M468.819 541.16H257.498C255.572 541.16 253.672 540.686 251.951 539.775C250.231 538.864 248.737 537.541 247.591 535.913C246.444 534.285 245.676 532.397 245.349 530.4C245.022 528.404 245.144 526.354 245.706 524.417L269.96 440.961C270.53 439.017 271.525 437.241 272.864 435.774C274.203 434.307 275.85 433.189 277.673 432.511L433.467 375.135C435.102 374.524 436.842 374.283 438.572 374.428C440.301 374.574 441.983 375.102 443.505 375.979C445.027 376.856 446.356 378.061 447.404 379.515C448.452 380.97 449.196 382.641 449.587 384.419L480.872 525.251C481.295 527.157 481.302 529.139 480.893 531.048C480.484 532.957 479.669 534.744 478.509 536.275C477.35 537.806 475.875 539.041 474.197 539.887C472.519 540.733 470.68 541.168 468.819 541.16Z" fill="#AE2D68"/>
<path d="M333.163 119.798C330.676 117.451 327.633 115.852 324.355 115.168C321.076 114.485 317.683 114.744 314.533 115.917C311.382 117.09 308.59 119.134 306.451 121.834C304.311 124.534 302.903 127.79 302.374 131.261C298.818 129.787 294.865 129.773 291.299 131.222C287.734 132.672 284.818 135.478 283.129 139.085L299.733 146.504C298.311 147.671 297.204 149.207 296.521 150.962C295.837 152.717 295.602 154.628 295.837 156.508C296.072 158.388 296.77 160.171 297.861 161.68C298.953 163.189 300.4 164.372 302.06 165.113C303.72 165.853 305.535 166.125 307.325 165.901C309.115 165.677 310.819 164.965 312.268 163.836C313.716 162.707 314.859 161.2 315.584 159.464C316.308 157.728 316.589 155.823 316.398 153.937L334.639 162.087L342.389 142.905C340.325 143.13 338.245 142.697 336.418 141.662C334.591 140.627 333.103 139.039 332.146 137.103C331.945 136.681 331.771 136.245 331.626 135.799C331.489 135.407 331.378 135.016 331.278 134.612C331.086 133.788 330.986 132.943 330.981 132.095C330.981 132.095 330.981 132.095 330.981 132.004C330.99 130.548 331.272 129.107 331.812 127.766C332.514 126.023 333.637 124.503 335.07 123.356C336.503 122.21 338.195 121.476 339.98 121.229C341.765 120.981 343.581 121.228 345.247 121.944C346.913 122.661 348.373 123.823 349.482 125.314L354.566 112.731C350.747 111.504 346.666 111.513 342.853 112.754C339.039 113.996 335.667 116.414 333.176 119.694L333.163 119.798Z" fill="white"/>
<path opacity="0.1" d="M323.925 202.12C325.691 202.911 327.634 203.164 329.53 202.85C332.106 202.427 334.434 200.995 336.048 198.842C337.661 196.69 338.441 193.974 338.231 191.242C338.021 188.509 336.836 185.962 334.914 184.11C332.992 182.257 330.475 181.238 327.868 181.256C327.546 181.237 327.223 181.237 326.901 181.256L334.639 162.074L316.398 153.924C316.588 155.758 316.328 157.612 315.642 159.31C315.027 160.842 314.086 162.206 312.892 163.296C311.698 164.387 310.282 165.175 308.753 165.601C307.224 166.026 305.622 166.078 304.072 165.752C302.521 165.425 301.061 164.73 299.806 163.718C298.55 162.707 297.532 161.406 296.829 159.916C296.126 158.426 295.756 156.787 295.749 155.124C295.742 153.46 296.098 151.818 296.788 150.321C297.479 148.825 298.486 147.515 299.733 146.491L283.129 139.072C281.728 142.034 281.234 145.38 281.716 148.649C282.198 151.919 283.632 154.951 285.82 157.328C282.922 158.106 280.245 159.608 278.017 161.706C275.788 163.804 274.074 166.436 273.019 169.38C271.963 172.323 271.599 175.491 271.956 178.614C272.313 181.737 273.381 184.723 275.069 187.32L275.342 187.698C277.094 190.229 279.393 192.285 282.05 193.696C289.825 198.664 302.225 202.824 316.77 206.188L319.796 198.717C320.868 200.209 322.291 201.382 323.925 202.12Z" fill="black"/>
<path d="M407.737 149.96C409.366 150.686 410.792 151.839 411.878 153.309C412.963 154.779 413.672 156.517 413.937 158.358C414.009 158.867 414.051 159.381 414.061 159.896V160.001C414.055 162.263 413.379 164.468 412.126 166.308C410.874 168.147 409.108 169.531 407.073 170.267C405.039 171.003 402.837 171.054 400.773 170.413C398.71 169.772 396.888 168.471 395.56 166.69L387.822 185.859L406.063 193.996C404.641 195.162 403.534 196.698 402.851 198.452C402.167 200.206 401.931 202.117 402.165 203.997C402.399 205.876 403.096 207.659 404.187 209.168C405.277 210.678 406.723 211.862 408.382 212.603C410.041 213.344 411.856 213.617 413.646 213.394C415.436 213.172 417.14 212.462 418.589 211.335C420.038 210.207 421.182 208.702 421.908 206.967C422.634 205.231 422.917 203.327 422.728 201.442L439.456 208.914C440.795 204.973 440.619 200.638 438.966 196.832C437.312 193.025 434.312 190.048 430.602 188.532C432.445 185.6 433.503 182.2 433.664 178.69C433.825 175.179 433.084 171.688 431.518 168.583C429.952 165.478 427.62 162.874 424.766 161.045C421.912 159.216 418.643 158.229 415.301 158.188C415.506 155.05 415.036 151.903 413.926 148.982C412.816 146.061 411.095 143.44 408.89 141.314C408.162 140.621 407.387 139.985 406.571 139.411L402.64 149.152C404.377 148.96 406.131 149.239 407.737 149.96Z" fill="white"/>
<path opacity="0.1" d="M345.365 122.107C342.839 120.982 339.991 120.957 337.448 122.037C334.905 123.118 332.873 125.216 331.799 127.87C331.259 129.212 330.977 130.652 330.968 132.108C330.968 132.108 330.968 132.108 330.968 132.2C330.973 133.048 331.073 133.893 331.266 134.716C331.365 135.12 331.477 135.512 331.613 135.903C331.759 136.349 331.933 136.785 332.134 137.207C333.091 139.143 334.579 140.732 336.406 141.767C338.232 142.801 340.312 143.235 342.376 143.01L334.626 162.192L352.854 170.342C352.761 169.475 352.761 168.6 352.854 167.734C352.848 167.703 352.848 167.672 352.854 167.642C352.854 167.642 352.854 167.525 352.854 167.473C353.071 166.055 353.552 164.697 354.271 163.477C354.99 162.257 355.933 161.199 357.043 160.365C358.154 159.53 359.411 158.936 360.742 158.616C362.073 158.296 363.45 158.257 364.795 158.501C365.589 158.635 366.364 158.872 367.102 159.205C368.358 159.752 369.5 160.554 370.461 161.565C371.423 162.576 372.186 163.777 372.706 165.098C373.227 166.419 373.495 167.835 373.495 169.265C373.495 170.695 373.227 172.111 372.707 173.432C372.189 174.715 371.439 175.879 370.499 176.862C370.2 177.174 369.886 177.47 369.557 177.748L387.797 185.885L395.535 166.716C396.863 168.497 398.685 169.798 400.749 170.439C402.812 171.08 405.014 171.029 407.049 170.293C409.083 169.557 410.849 168.174 412.101 166.334C413.354 164.494 414.03 162.289 414.036 160.027V159.923C414.026 159.407 413.984 158.893 413.912 158.384C413.509 155.625 412.11 153.137 410.005 151.436C407.901 149.736 405.254 148.955 402.615 149.256L406.546 139.515C403.673 137.463 400.338 136.24 396.874 135.968C396.08 132.531 394.549 129.33 392.398 126.611C390.247 123.892 387.533 121.726 384.463 120.279C381.394 118.832 378.051 118.142 374.69 118.262C371.328 118.382 368.037 119.309 365.068 120.972C362.514 117.133 358.813 114.301 354.553 112.926L349.469 125.51C348.401 124.025 346.987 122.853 345.365 122.107Z" fill="black"/>
<path opacity="0.1" d="M421.935 206.841C421.319 208.373 420.377 209.737 419.182 210.827C417.987 211.917 416.57 212.704 415.041 213.129C413.511 213.554 411.909 213.604 410.358 213.277C408.807 212.949 407.348 212.252 406.093 211.239C404.838 210.226 403.821 208.924 403.119 207.433C402.417 205.942 402.049 204.302 402.044 202.638C402.038 200.975 402.396 199.332 403.088 197.836C403.78 196.34 404.79 195.031 406.038 194.009L387.798 185.872L380.048 205.054C379.849 204.78 379.614 204.532 379.39 204.272C378.423 203.183 377.248 202.321 375.943 201.742C373.5 200.654 370.753 200.593 368.268 201.573C365.784 202.553 363.752 204.499 362.593 207.009C361.433 209.518 361.233 212.4 362.036 215.06C362.838 217.72 364.58 219.954 366.904 221.302C367.201 221.471 367.524 221.641 367.846 221.784C369.461 222.503 371.223 222.782 372.967 222.593L370.103 229.674C374.412 230.683 378.925 229.878 382.676 227.431C383.459 226.916 384.202 226.336 384.896 225.696C385.399 228.441 386.374 231.066 387.773 233.442C390.405 237.917 394.395 241.327 399.098 243.122C403.801 244.916 408.943 244.99 413.691 243.331C418.439 241.672 422.516 238.378 425.263 233.98C428.01 229.583 429.267 224.339 428.829 219.098C431.254 218.447 433.489 217.178 435.338 215.404C437.187 213.631 438.592 211.406 439.431 208.927L422.704 201.455C422.883 203.29 422.619 205.142 421.935 206.841Z" fill="black"/>
<path d="M109.281 401.632L109.492 398.398C109.548 397.843 109.471 397.283 109.267 396.768C109.064 396.253 108.74 395.8 108.326 395.451L104.606 392.543C103.818 391.968 102.896 391.631 101.939 391.566C100.982 391.502 100.026 391.713 99.175 392.178L97.935 392.752C97.2654 398.163 99.9314 403.94 99.9314 403.94L100.527 405.714C100.63 406.07 100.811 406.396 101.056 406.666C101.3 406.936 101.601 407.142 101.934 407.269C102.267 407.396 102.624 407.439 102.976 407.395C103.328 407.351 103.665 407.222 103.961 407.018L107.235 405.114C107.816 404.747 108.304 404.24 108.66 403.634C109.016 403.029 109.229 402.342 109.281 401.632Z" fill="#B55B52"/>
<path d="M103.8 389.896L105.71 391.526C102.624 394.356 99.3912 397.003 96.0254 399.454C95.2842 398.692 94.4928 397.986 93.657 397.342L103.8 389.896Z" fill="#263238"/>
<path d="M111.079 336.927C110.372 337.879 109.492 339.157 108.723 340.318C107.954 341.478 107.136 342.704 106.367 343.904C104.842 346.329 103.366 348.781 102.015 351.232C100.69 353.622 99.4818 356.081 98.3939 358.6C97.4478 360.691 96.7002 362.875 96.1619 365.12L96.2735 362.877C96.2601 363.585 96.3394 364.291 96.5091 364.976C96.7392 366.04 97.0248 367.089 97.3647 368.119C98.1501 370.514 99.0524 372.864 100.068 375.161C101.109 377.56 102.275 379.972 103.49 382.372C104.705 384.771 105.97 387.223 107.21 389.4L92.0823 399.898C90.3339 397.29 88.8211 394.799 87.2835 392.178C85.7459 389.557 84.2951 386.962 82.8815 384.197C81.4148 381.353 80.0863 378.433 78.9011 375.448C78.2935 373.87 77.6611 372.227 77.1899 370.401C76.5889 368.315 76.1941 366.17 76.0119 363.998L75.9375 363.086L76.1235 361.782C76.6966 357.889 77.6652 354.073 79.0127 350.398C80.2111 347.085 81.5686 343.838 83.0799 340.67C84.5059 337.606 86.0187 334.645 87.5935 331.751C88.3747 330.303 89.1807 328.856 90.0735 327.434C90.9663 326.013 91.6979 324.657 92.7023 323.066L111.079 336.927Z" fill="#AE2D68"/>
<path opacity="0.7" d="M111.079 336.927C110.372 337.879 109.492 339.157 108.723 340.318C107.954 341.478 107.136 342.704 106.367 343.904C104.842 346.329 103.366 348.781 102.015 351.232C100.69 353.622 99.4818 356.081 98.3939 358.6C97.4478 360.691 96.7002 362.875 96.1619 365.12L96.2735 362.877C96.2601 363.585 96.3394 364.291 96.5091 364.976C96.7392 366.04 97.0248 367.089 97.3647 368.119C98.1501 370.514 99.0524 372.864 100.068 375.161C101.109 377.56 102.275 379.972 103.49 382.372C104.705 384.771 105.97 387.223 107.21 389.4L92.0823 399.898C90.3339 397.29 88.8211 394.799 87.2835 392.178C85.7459 389.557 84.2951 386.962 82.8815 384.197C81.4148 381.353 80.0863 378.433 78.9011 375.448C78.2935 373.87 77.6611 372.227 77.1899 370.401C76.5889 368.315 76.1941 366.17 76.0119 363.998L75.9375 363.086L76.1235 361.782C76.6966 357.889 77.6652 354.073 79.0127 350.398C80.2111 347.085 81.5686 343.838 83.0799 340.67C84.5059 337.606 86.0187 334.645 87.5935 331.751C88.3747 330.303 89.1807 328.856 90.0735 327.434C90.9663 326.013 91.6979 324.657 92.7023 323.066L111.079 336.927Z" fill="white"/>
<path d="M171.604 518.379L158.422 521.235L165.069 536.922L176.092 534.549L171.604 518.379Z" fill="#B55B52"/>
<path opacity="0.2" d="M171.604 518.379L158.41 521.248L162.142 530.024L174.121 527.442L171.604 518.379Z" fill="black"/>
<path d="M140.839 469.088C134.267 447.611 118.519 426.056 119.759 404.853L163.668 404.735C163.668 404.735 166.532 447.507 168.02 467.327C169.57 487.879 174.468 523.921 174.468 523.921L159.588 528.12C159.588 528.12 139.698 492.09 140.839 469.088Z" fill="#263238"/>
<path d="M165.775 542.373L169.21 541.421L169.508 540.039L171.479 540.795C177.741 540.313 183.784 538.163 189.038 534.549C188.401 533.186 187.461 532.006 186.297 531.106C186.297 531.106 181.189 532.41 177.791 531.419C177.243 531.234 176.649 531.276 176.129 531.537C174.009 532.632 168.317 535.331 164.387 534.966C164.301 534.957 164.215 534.971 164.137 535.008C164.059 535.044 163.991 535.101 163.939 535.173C163.888 535.245 163.856 535.33 163.845 535.42C163.834 535.509 163.846 535.6 163.878 535.683C164.679 537.856 165.313 540.093 165.775 542.373Z" fill="#263238"/>
<path d="M119.561 520.322L106.07 520.465L106.714 537.196L117.986 537.105L119.561 520.322Z" fill="#B55B52"/>
<path opacity="0.2" d="M119.561 520.335L106.07 520.465L106.429 529.841L118.68 529.724L119.561 520.335Z" fill="black"/>
<path d="M104.892 463.702C103.8 442.212 92.3923 419.51 97.8855 405.727L139.909 404.735C139.909 404.735 139.512 446.242 135.148 466.023C130.609 486.666 119.945 526.816 119.945 526.816H105.363C105.363 526.816 99.4107 488.205 104.892 463.702Z" fill="#263238"/>
<path d="M137.504 296.999C138.979 298.499 139.984 297.599 139.897 295.538C140.444 295.954 140.879 296.513 141.159 297.16C141.438 297.807 141.552 298.519 141.489 299.226C141.427 299.933 141.19 300.611 140.802 301.192C140.414 301.774 139.888 302.239 139.277 302.541C136.524 304.184 133.424 303.258 132.345 301.485L131.924 295.421C134.019 294.3 135.284 294.769 137.504 296.999Z" fill="#E0E0E0"/>
<path d="M131.353 290.427L133.548 296.36C134.814 296.17 135.968 295.492 136.784 294.456C135.348 292.628 133.473 291.237 131.353 290.427Z" fill="#A02724"/>
<path d="M131.738 289.266C131.998 289.97 132.568 290.388 132.978 290.192C133.387 289.996 133.56 289.292 133.288 288.588C133.015 287.884 132.457 287.467 132.048 287.649C131.638 287.832 131.44 288.562 131.738 289.266Z" fill="#263238"/>
<path d="M133.474 294.417C133.007 294.411 132.548 294.304 132.122 294.104C130.54 293.266 129.327 291.818 128.737 290.062C127.497 286.919 128.216 283.672 130.212 282.811C130.612 282.657 131.037 282.591 131.462 282.617C131.886 282.644 132.301 282.764 132.68 282.968C134.262 283.806 135.474 285.254 136.065 287.01C137.305 290.153 136.586 293.4 134.59 294.261C134.232 294.393 133.852 294.446 133.474 294.417ZM131.266 283.242C130.986 283.245 130.709 283.303 130.448 283.411C128.762 284.142 128.253 287.01 129.32 289.814C129.843 291.414 130.936 292.737 132.37 293.504C132.668 293.653 132.992 293.738 133.322 293.754C133.652 293.77 133.982 293.716 134.292 293.596C135.978 292.865 136.487 289.996 135.42 287.193C134.897 285.593 133.803 284.27 132.37 283.503C132.022 283.34 131.647 283.251 131.266 283.242Z" fill="#263238"/>
<path d="M131.812 286.124C131.753 286.158 131.687 286.176 131.62 286.176C131.552 286.176 131.486 286.158 131.428 286.124C131.006 285.786 130.513 285.559 129.992 285.462C129.47 285.364 128.933 285.399 128.427 285.563C128.323 285.606 128.208 285.604 128.105 285.557C128.003 285.511 127.923 285.424 127.881 285.315C127.84 285.204 127.841 285.081 127.885 284.971C127.93 284.862 128.012 284.775 128.117 284.728C128.755 284.514 129.432 284.464 130.092 284.582C130.752 284.7 131.376 284.983 131.911 285.406C131.957 285.439 131.996 285.481 132.026 285.53C132.056 285.579 132.076 285.633 132.085 285.691C132.094 285.748 132.093 285.807 132.08 285.863C132.067 285.92 132.043 285.973 132.01 286.019C131.957 286.076 131.887 286.113 131.812 286.124Z" fill="#263238"/>
<path d="M107.88 296.008C111.6 304.445 114.39 310.078 120.528 311.734C132.742 315.02 136.648 307.927 135.408 298.459C134.168 289.944 128.253 277.596 118.928 277.596C116.857 277.585 114.818 278.128 113.002 279.175C111.186 280.222 109.653 281.737 108.548 283.579C107.443 285.421 106.801 287.528 106.684 289.703C106.568 291.877 106.979 294.047 107.88 296.008Z" fill="#B55B52"/>
<path d="M134.763 317.602C133.943 315.933 132.61 314.605 130.981 313.834C130.363 312.163 130.319 310.318 130.857 308.618L112.381 302.528C113.869 308.944 115.035 314.029 112.766 317.146C116.399 319.467 123.058 323.666 130.312 323.444C137.566 323.222 135.941 320.288 134.763 317.602Z" fill="#B55B52"/>
<path d="M109.517 316.455C108.413 312.751 110.087 312.256 110.087 312.256C110.087 312.256 121.507 309.374 132.097 312.256C142.687 315.138 136.313 319.167 136.313 319.167L109.517 316.455Z" fill="#263238"/>
<path d="M128.266 294.834C129.431 291.979 129.506 286.228 127.224 283.359C127.232 283.736 127.155 284.11 127 284.449C126.845 284.789 126.616 285.086 126.331 285.315C125.748 284.402 122.128 281.86 117.031 281.977C117.477 282.309 117.832 282.759 118.06 283.281C118.06 283.281 110.075 281.886 105.76 285.315C105.76 285.315 106.677 286.619 106.008 287.48C104.433 288.419 103.788 289.579 104.42 293.4C105.053 297.221 109.38 303.91 113.584 308.083C121.446 308.552 125.649 305.175 125.649 305.175C125.649 305.175 130.2 300.181 128.266 294.834Z" fill="#E0E0E0"/>
<path d="M124.446 293.726H124.372C124.332 293.717 124.295 293.699 124.262 293.675C124.229 293.65 124.201 293.618 124.18 293.581C124.159 293.545 124.145 293.504 124.14 293.461C124.135 293.419 124.138 293.376 124.149 293.335C124.645 291.301 127.224 289.358 128.898 288.64C131.378 287.532 135.259 286.032 135.296 286.032C135.373 286.006 135.456 286.012 135.529 286.049C135.602 286.086 135.658 286.151 135.685 286.231C135.712 286.311 135.709 286.399 135.676 286.476C135.643 286.554 135.582 286.614 135.507 286.645C135.507 286.645 131.651 288.132 129.134 289.253C127.621 289.905 125.19 291.705 124.744 293.504C124.721 293.569 124.681 293.624 124.628 293.664C124.575 293.703 124.511 293.725 124.446 293.726Z" fill="#263238"/>
<path d="M123.38 295.082C124.022 297.112 125.344 298.827 127.1 299.907C129.307 301.12 130.535 298.603 130.039 295.786C129.592 293.178 127.918 289.423 125.649 289.436C123.38 289.449 122.462 292.409 123.38 295.082Z" fill="#B55B52"/>
<path d="M140.665 317.015C128.182 315.773 115.607 315.983 103.168 317.641C101.466 317.907 99.8338 318.536 98.3709 319.488C96.908 320.44 95.6452 321.696 94.6597 323.179C93.6743 324.662 92.9869 326.341 92.6397 328.113C92.2924 329.885 92.2926 331.713 92.6402 333.485C98.4682 364.364 95.5914 401.567 96.199 407.669C96.199 407.669 132.853 417.163 165.639 406.822C169.471 369.006 156.575 337.606 150.685 324.539C149.766 322.489 148.363 320.72 146.609 319.403C144.854 318.085 142.808 317.263 140.665 317.015Z" fill="#263238"/>
<path d="M105.053 542.373H107.979L108.723 541.069L110.31 542.373H129.171C129.219 540.89 128.898 539.421 128.241 538.109C128.241 538.109 121.78 537.6 119.635 534.836C119.56 534.727 119.458 534.642 119.339 534.591C119.221 534.54 119.091 534.526 118.966 534.549C117.23 534.94 110.286 536.335 106.367 534.875C106.273 534.833 106.17 534.817 106.069 534.828C105.967 534.839 105.87 534.877 105.786 534.938C105.702 534.999 105.634 535.081 105.588 535.177C105.542 535.273 105.52 535.38 105.524 535.488C105.534 537.792 105.377 540.094 105.053 542.373Z" fill="#263238"/>
<path d="M147.982 318.385C132.767 309.961 102.784 313.521 96.162 318.606C83.5264 328.321 95.046 359.813 95.1452 389.87C95.2444 419.927 93.7936 453.857 93.7936 491.204C124.632 515.98 177.841 489.443 177.841 489.443C177.841 489.443 178.56 335.337 147.982 318.385Z" fill="#AE2D68"/>
<path opacity="0.8" d="M147.982 318.385C132.767 309.961 102.784 313.521 96.162 318.606C83.5264 328.321 95.046 359.813 95.1452 389.87C95.2444 419.927 93.7936 453.857 93.7936 491.204C124.632 515.98 177.841 489.443 177.841 489.443C177.841 489.443 178.56 335.337 147.982 318.385Z" fill="white"/>
<path opacity="0.2" d="M159.613 334.828L147.771 337.058C152.452 340.359 157.57 342.916 162.961 344.647C162.002 341.317 160.884 338.04 159.613 334.828Z" fill="#AE2D68"/>
<path d="M199.045 294.078L196.056 294.9C195.541 295.02 195.062 295.276 194.665 295.643C194.269 296.01 193.967 296.476 193.787 296.999L192.374 301.693C192.11 302.663 192.102 303.69 192.351 304.664C192.6 305.638 193.096 306.523 193.787 307.222L194.68 308.213C199.764 307.131 204.116 302.619 204.116 302.619L205.53 301.472C205.83 301.257 206.078 300.969 206.252 300.634C206.426 300.299 206.522 299.924 206.531 299.542C206.541 299.16 206.464 298.781 206.308 298.437C206.151 298.092 205.918 297.791 205.629 297.56L202.876 294.952C202.352 294.492 201.73 294.172 201.063 294.02C200.395 293.868 199.703 293.888 199.045 294.078Z" fill="#B55B52"/>
<path d="M188.48 302.75L190.712 300.22C194.658 302.809 198.463 305.63 202.108 308.67C201.522 309.763 201.017 310.9 200.595 312.073L188.48 302.75Z" fill="#263238"/>
<path d="M141.137 315.803C143.617 316.298 146.332 316.781 148.936 317.224C151.54 317.667 154.182 318.111 156.786 318.528C162.006 319.337 167.239 320.054 172.211 320.471L170.066 320.628C169.669 320.771 170.066 320.745 170.736 320.393C171.538 319.945 172.298 319.416 173.005 318.815C174.878 317.254 176.632 315.541 178.25 313.69C180.011 311.747 181.734 309.622 183.408 307.431C184.239 306.336 185.07 305.214 185.888 304.093C186.707 302.971 187.513 301.759 188.182 300.768L203.484 310.991C202.579 312.543 201.81 313.808 200.942 315.19C200.074 316.572 199.231 317.876 198.338 319.193C196.565 321.801 194.692 324.409 192.634 327.017C190.493 329.753 188.155 332.312 185.64 334.672C184.172 336.052 182.596 337.299 180.928 338.401C178.696 339.91 176.221 340.979 173.625 341.557L172.868 341.726H171.492C165.627 341.726 160.059 341.361 154.504 340.957C151.726 340.748 148.961 340.518 146.208 340.266C143.431 340.005 140.728 339.731 137.888 339.418L141.137 315.803Z" fill="#AE2D68"/>
<path opacity="0.8" d="M141.137 315.803C143.617 316.298 146.332 316.781 148.936 317.224C151.54 317.667 154.182 318.111 156.786 318.528C162.006 319.337 167.239 320.054 172.211 320.471L170.066 320.628C169.669 320.771 170.066 320.745 170.736 320.393C171.538 319.945 172.298 319.416 173.005 318.815C174.878 317.254 176.632 315.541 178.25 313.69C180.011 311.747 181.734 309.622 183.408 307.431C184.239 306.336 185.07 305.214 185.888 304.093C186.707 302.971 187.513 301.759 188.182 300.768L203.484 310.991C202.579 312.543 201.81 313.808 200.942 315.19C200.074 316.572 199.231 317.876 198.338 319.193C196.565 321.801 194.692 324.409 192.634 327.017C190.493 329.753 188.155 332.312 185.64 334.672C184.172 336.052 182.596 337.299 180.928 338.401C178.696 339.91 176.221 340.979 173.625 341.557L172.868 341.726H171.492C165.627 341.726 160.059 341.361 154.504 340.957C151.726 340.748 148.961 340.518 146.208 340.266C143.431 340.005 140.728 339.731 137.888 339.418L141.137 315.803Z" fill="white"/>
<path opacity="0.2" d="M456.32 414.672L456.841 435.014H404.81L403.967 402.036H453.468L452.798 399.05H403.893L403.062 366.072H429.4C429.4 365.068 429.4 364.064 429.4 363.073H403L402.206 331.959H397.978L403.26 541.16H407.501L406.72 510.007H458.701L459.494 541.108H463.76L461.106 436.227L456.32 414.672ZM404.934 438.014H456.915L457.746 470.992H405.716L404.934 438.014ZM406.683 506.969L405.852 473.991H457.833L458.664 506.969H406.683Z" fill="black"/>
<path d="M491.313 551.331H495.553L459.321 331.998H455.08L460.461 364.598H408.493L403.111 331.998H398.871L435.103 551.331H439.332L433.95 518.731H485.931L491.313 551.331ZM473.469 443.243L479.173 477.825H427.192L421.488 443.243H473.469ZM420.967 440.087L415.251 405.544H467.232L472.948 440.126L420.967 440.087ZM460.995 367.728L466.711 402.323H414.73L409.014 367.728H460.995ZM433.429 515.562L427.713 480.967H479.694L485.41 515.562H433.429Z" fill="#263238"/>
<path d="M467.182 292.396L466.401 289.644C466.253 289.135 466.223 288.596 466.314 288.072C466.405 287.548 466.613 287.054 466.922 286.632L469.848 282.642C470.43 281.85 471.184 281.217 472.048 280.797C472.911 280.377 473.858 280.183 474.808 280.23H476.048C477.66 284.689 476.272 290.766 476.272 290.766L476.061 292.539C476.027 292.905 475.924 293.26 475.759 293.583C475.594 293.907 475.369 294.192 475.098 294.424C474.827 294.656 474.515 294.828 474.18 294.932C473.845 295.036 473.494 295.07 473.147 295.03L469.786 294.639C469.192 294.573 468.628 294.326 468.165 293.927C467.702 293.529 467.361 292.996 467.182 292.396Z" fill="#7F3E3B"/>
<path d="M471.349 280.125L469.96 282.303C473.756 284.199 477.652 285.867 481.628 287.297C482.159 286.323 482.756 285.39 483.414 284.507L471.349 280.125Z" fill="white"/>
<path d="M461.9 214.547C464.182 216.634 466.314 218.655 468.472 220.754C470.63 222.854 472.762 224.953 474.87 227.118C479.233 231.501 483.372 236.123 487.27 240.966L487.928 241.801L488.238 242.44C489.368 244.808 490.066 247.377 490.296 250.016C490.488 252.044 490.521 254.085 490.395 256.119C490.158 259.691 489.665 263.239 488.92 266.733C488.238 270.098 487.407 273.344 486.44 276.539C485.472 279.734 484.555 282.812 483.389 286.111L469.749 280.96C470.568 278.274 471.386 275.248 472.068 272.38C472.75 269.511 473.308 266.551 473.816 263.695C474.274 260.977 474.54 258.226 474.61 255.467C474.635 254.333 474.568 253.198 474.412 252.076C474.378 251.548 474.229 251.035 473.978 250.577L474.957 252.05C471.23 247.927 467.303 244.009 463.19 240.314C461.094 238.397 458.961 236.52 456.804 234.655C454.646 232.79 452.439 230.925 450.318 229.191L461.9 214.547Z" fill="#AE2D68"/>
<path opacity="0.7" d="M461.9 214.547C464.182 216.634 466.314 218.655 468.472 220.754C470.63 222.854 472.762 224.953 474.87 227.118C479.233 231.501 483.372 236.123 487.27 240.966L487.928 241.801L488.238 242.44C489.368 244.808 490.066 247.377 490.296 250.016C490.488 252.044 490.521 254.085 490.395 256.119C490.158 259.691 489.665 263.239 488.92 266.733C488.238 270.098 487.407 273.344 486.44 276.539C485.472 279.734 484.555 282.812 483.389 286.111L469.749 280.96C470.568 278.274 471.386 275.248 472.068 272.38C472.75 269.511 473.308 266.551 473.816 263.695C474.274 260.977 474.54 258.226 474.61 255.467C474.635 254.333 474.568 253.198 474.412 252.076C474.378 251.548 474.229 251.035 473.978 250.577L474.957 252.05C471.23 247.927 467.303 244.009 463.19 240.314C461.094 238.397 458.961 236.52 456.804 234.655C454.646 232.79 452.439 230.925 450.318 229.191L461.9 214.547Z" fill="white"/>
<path d="M448.347 195.43C447.293 200.516 446.152 209.853 449.463 213.243C449.463 213.243 444.837 212.513 435.426 218.85C432.388 214.599 434.421 213.243 434.421 213.243C439.84 211.939 439.791 207.675 438.935 203.724L448.347 195.43Z" fill="#7F3E3B"/>
<path d="M430.565 186.915C430.441 187.593 430.007 188.089 429.585 188.024C429.164 187.959 428.916 187.333 429.04 186.642C429.164 185.95 429.598 185.468 430.019 185.546C430.441 185.624 430.689 186.237 430.565 186.915Z" fill="#263238"/>
<path d="M430.181 182.456C430.081 182.44 429.989 182.39 429.92 182.312C429.862 182.226 429.838 182.118 429.854 182.013C429.871 181.908 429.926 181.814 430.007 181.752C430.497 181.349 431.069 181.072 431.678 180.943C432.287 180.814 432.917 180.836 433.516 181.008C433.565 181.023 433.611 181.048 433.65 181.082C433.689 181.116 433.721 181.159 433.743 181.207C433.765 181.255 433.777 181.307 433.779 181.361C433.781 181.414 433.771 181.467 433.752 181.517C433.716 181.617 433.644 181.699 433.551 181.745C433.459 181.792 433.353 181.798 433.256 181.765C432.779 181.636 432.281 181.625 431.799 181.731C431.318 181.837 430.866 182.058 430.478 182.377C430.438 182.414 430.39 182.439 430.338 182.453C430.287 182.467 430.233 182.467 430.181 182.456Z" fill="#263238"/>
<path d="M430.069 188.18C429.214 189.622 428.18 190.938 426.994 192.092C427.28 192.399 427.628 192.636 428.012 192.785C428.396 192.934 428.806 192.991 429.214 192.953L430.069 188.18Z" fill="#630F0F"/>
<path d="M430.206 185.611L428.73 184.868C428.73 184.868 429.3 186.289 430.206 185.611Z" fill="#263238"/>
<path d="M452.377 188.154C450.591 196.2 450.008 199.642 445.395 203.137C438.451 208.353 429.35 204.363 428.792 195.939C428.283 188.35 431.272 176.483 439.456 174.553C441.239 174.11 443.1 174.153 444.863 174.679C446.626 175.206 448.231 176.198 449.526 177.561C450.821 178.924 451.763 180.613 452.262 182.468C452.761 184.322 452.8 186.279 452.377 188.154Z" fill="#7F3E3B"/>
<path d="M434.422 189.145C432.338 188.624 433.566 182.182 434.422 180.852C430.243 179.613 427.044 176.053 431.818 172.637C436.592 169.22 440.758 167.942 442.916 169.455C444.218 165.543 452.674 167.303 456.816 174.267C460.747 180.852 457.684 186.12 454.869 186.342C459.333 190.254 453.505 197.778 448.458 199.29C448.173 204.506 439.605 204.741 435.724 200.803C431.842 196.865 434.422 189.145 434.422 189.145Z" fill="#263238"/>
<path d="M437.819 190.488C437.612 191.24 437.252 191.934 436.764 192.524C436.275 193.114 435.671 193.585 434.992 193.905C433.268 194.609 432.152 192.523 432.425 190.28C432.673 188.258 433.851 185.455 435.686 185.729C437.522 186.003 438.427 188.467 437.819 190.488Z" fill="#7F3E3B"/>
<path d="M490.767 431.063C495.826 427.699 495.02 426.33 497.798 424.335C500.179 422.626 500.972 422.561 502.907 421.218C504.519 420.097 503.378 418.428 501.667 416.811C500.786 415.989 499.633 415.05 498.281 413.694L490.593 418.806C490.916 421.674 490.246 426.199 487.655 428.507C485.063 430.815 488.746 432.406 490.767 431.063Z" fill="#263238"/>
<path d="M426.647 440.087C435.252 440.087 434.694 439.813 438.08 439.748C440.56 439.748 439.878 440.087 444.49 440.087C446.437 440.087 446.611 437.779 445.892 436.044C445.125 434.531 444.482 432.952 443.97 431.324H435.649C434.174 434.101 430.094 436.149 425.518 436.54C422.257 436.749 424.229 440.087 426.647 440.087Z" fill="#263238"/>
<path d="M424.216 267.203C424.216 267.203 423.249 312.843 425.977 341.818C425.977 369.019 435.662 431.324 435.662 431.324C435.86 432.719 442.804 432.159 443.97 431.324C443.97 431.324 449.277 385.684 443.275 341.57C457.486 295.539 456.382 267.242 456.382 267.242L424.216 267.203Z" fill="#263238"/>
<path d="M432.872 267.203C432.872 267.203 449.537 318.711 456.518 344.008C463.834 370.571 481.876 403.223 490.569 418.806C492.218 418.806 496.422 416.041 498.257 413.694C488.82 396.077 488.56 371.392 474.188 345.182C474.325 282.264 464.554 267.203 464.554 267.203H432.872Z" fill="#263238"/>
<path d="M488.002 416.067C488.634 417.112 489.197 418.201 489.688 419.327C489.725 419.424 489.78 419.512 489.849 419.586C489.918 419.66 490.001 419.718 490.092 419.758C490.183 419.798 490.281 419.819 490.38 419.819C490.479 419.819 490.577 419.798 490.668 419.758C493.562 418.212 496.22 416.221 498.554 413.85C498.659 413.742 498.729 413.602 498.754 413.45C498.778 413.298 498.756 413.141 498.691 413.003L497.24 409.821C497.196 409.72 497.132 409.631 497.053 409.558C496.973 409.485 496.88 409.431 496.779 409.399C496.678 409.367 496.572 409.358 496.468 409.372C496.363 409.386 496.263 409.424 496.173 409.482L488.138 415.063C488.067 415.12 488.006 415.19 487.961 415.271C487.915 415.353 487.885 415.442 487.872 415.535C487.86 415.629 487.865 415.724 487.887 415.815C487.909 415.906 487.948 415.992 488.002 416.067Z" fill="#AE2D68"/>
<path opacity="0.3" d="M488.002 416.067C488.634 417.112 489.197 418.201 489.688 419.327C489.725 419.424 489.78 419.512 489.849 419.586C489.918 419.66 490.001 419.718 490.092 419.758C490.183 419.798 490.281 419.819 490.38 419.819C490.479 419.819 490.577 419.798 490.668 419.758C493.562 418.212 496.22 416.221 498.554 413.85C498.659 413.742 498.729 413.602 498.754 413.45C498.778 413.298 498.756 413.141 498.691 413.003L497.24 409.821C497.196 409.72 497.132 409.631 497.053 409.558C496.973 409.485 496.88 409.431 496.779 409.399C496.678 409.367 496.572 409.358 496.468 409.372C496.363 409.386 496.263 409.424 496.173 409.482L488.138 415.063C488.067 415.12 488.006 415.19 487.961 415.271C487.915 415.353 487.885 415.442 487.872 415.535C487.86 415.629 487.865 415.724 487.887 415.815C487.909 415.906 487.948 415.992 488.002 416.067Z" fill="white"/>
<path d="M434.297 428.077C434.297 429.029 434.359 430.685 434.297 431.989C434.294 432.19 434.364 432.385 434.493 432.533C434.623 432.681 434.801 432.771 434.992 432.785C438.057 432.889 441.124 432.697 444.156 432.211C444.301 432.187 444.435 432.114 444.537 432.004C444.64 431.893 444.706 431.751 444.726 431.598L445.172 428.181C445.185 428.07 445.174 427.956 445.142 427.849C445.109 427.742 445.055 427.643 444.984 427.559C444.912 427.475 444.825 427.408 444.727 427.363C444.629 427.317 444.523 427.294 444.416 427.295L434.93 427.386C434.763 427.402 434.607 427.48 434.491 427.607C434.374 427.734 434.306 427.901 434.297 428.077Z" fill="#AE2D68"/>
<path opacity="0.3" d="M434.297 428.077C434.297 429.029 434.359 430.685 434.297 431.989C434.294 432.19 434.364 432.385 434.493 432.533C434.623 432.681 434.801 432.771 434.992 432.785C438.057 432.889 441.124 432.697 444.156 432.211C444.301 432.187 444.435 432.114 444.537 432.004C444.64 431.893 444.706 431.751 444.726 431.598L445.172 428.181C445.185 428.07 445.174 427.956 445.142 427.849C445.109 427.742 445.055 427.643 444.984 427.559C444.912 427.475 444.825 427.408 444.727 427.363C444.629 427.317 444.523 427.294 444.416 427.295L434.93 427.386C434.763 427.402 434.607 427.48 434.491 427.607C434.374 427.734 434.306 427.901 434.297 428.077Z" fill="white"/>
<path d="M420.36 226.192C420.434 229.621 420.521 233.951 421.377 242.127C421.972 249.051 422.766 255.858 424.278 267.203H464.616C463.462 257.397 458.217 246.208 463.066 224.171C463.341 222.977 463.369 221.736 463.149 220.53C462.929 219.324 462.466 218.182 461.79 217.181C461.114 216.179 460.241 215.342 459.231 214.726C458.222 214.11 457.098 213.729 455.936 213.608C454.621 213.478 453.22 213.361 451.794 213.282C446.307 212.904 440.802 212.904 435.314 213.282C433.678 213.439 432.004 213.66 430.354 213.895C427.555 214.324 424.999 215.808 423.161 218.069C421.322 220.331 420.327 223.217 420.36 226.192Z" fill="#AE2D68"/>
<path d="M353.536 254.28C354.713 255.695 356.099 256.902 357.641 257.853C359.6 259.065 361.773 259.847 364.028 260.152C366.282 260.457 368.573 260.278 370.76 259.626L370.165 251.959C368.706 252.98 367.025 253.595 365.279 253.745C364.928 253.765 364.576 253.765 364.225 253.745C362.732 253.717 361.262 253.348 359.917 252.666C358.572 251.983 357.383 251.001 356.433 249.789C355.483 248.577 354.794 247.163 354.413 245.644C354.032 244.126 353.969 242.538 354.227 240.991C354.486 239.444 355.06 237.974 355.91 236.682C356.76 235.391 357.866 234.308 359.152 233.509C360.438 232.71 361.873 232.213 363.359 232.053C364.845 231.893 366.346 232.073 367.759 232.581L368.677 232.947L367.04 212.2L347.2 213.856C347.373 213.452 347.526 213.038 347.659 212.617C348.044 211.284 348.187 209.886 348.08 208.497C347.853 205.622 346.55 202.959 344.458 201.094C342.365 199.229 339.654 198.313 336.92 198.547C336.12 198.627 335.33 198.797 334.564 199.056C333.264 199.495 332.06 200.202 331.022 201.136C329.985 202.07 329.134 203.211 328.52 204.494C327.906 205.777 327.541 207.175 327.446 208.608C327.351 210.041 327.528 211.479 327.968 212.839C327.962 212.895 327.962 212.952 327.968 213.008C327.962 213.034 327.962 213.061 327.968 213.087C328.246 213.91 328.621 214.694 329.084 215.421L309.33 217.129L310.955 237.902C311.228 237.706 311.513 237.55 311.798 237.38C313.347 236.505 315.082 236.06 316.84 236.086C318.598 236.112 320.32 236.61 321.845 237.531C323.369 238.452 324.645 239.766 325.552 241.35C326.459 242.934 326.967 244.735 327.028 246.582C327.089 248.43 326.701 250.264 325.901 251.91C325.101 253.556 323.915 254.961 322.455 255.991C320.995 257.021 319.31 257.643 317.558 257.798C315.806 257.952 314.045 257.635 312.443 256.875L313.075 264.96C320.23 262.912 327.769 260.461 335.482 257.723C338.487 259.036 341.789 259.41 344.992 258.8C348.194 258.189 351.161 256.62 353.536 254.28Z" fill="white"/>
<path d="M361.77 225.84L364.461 225.331C364.957 225.234 365.469 225.264 365.952 225.418C366.436 225.572 366.877 225.847 367.238 226.218L370.673 229.739C371.35 230.434 371.859 231.288 372.159 232.232C372.458 233.175 372.54 234.18 372.397 235.163L372.211 236.402C367.809 237.563 362.291 235.411 362.291 235.411L360.629 234.981C360.289 234.902 359.967 234.754 359.681 234.544C359.395 234.334 359.151 234.067 358.964 233.758C358.776 233.45 358.648 233.105 358.587 232.744C358.526 232.383 358.533 232.013 358.608 231.656L359.377 228.2C359.518 227.606 359.818 227.068 360.243 226.649C360.667 226.23 361.197 225.949 361.77 225.84Z" fill="#7F3E3B"/>
<path d="M372.88 231.603L370.983 229.843C368.759 233.595 366.735 237.474 364.919 241.462C365.792 242.127 366.621 242.855 367.399 243.639L372.88 231.603Z" fill="white"/>
<path d="M431.185 211.483C422.505 212.787 416.838 219.046 416.02 239.506C415.732 254.84 416.224 270.18 417.496 285.459C416.256 322.414 414.197 374.365 420.298 391.696C442.432 400.328 478.417 388.201 495.231 379.268C489.788 366.228 478.578 321.214 473.395 285.811C470.679 267.203 467.331 238.436 466.538 226.557C465.744 214.678 459.866 212.291 454.262 211.105C448.657 209.918 440.498 210.1 431.185 211.483Z" fill="#AE2D68"/>
<path opacity="0.8" d="M431.185 211.483C422.505 212.787 416.838 219.046 416.02 239.506C415.732 254.84 416.224 270.18 417.496 285.459C416.256 322.414 414.197 374.365 420.298 391.696C442.432 400.328 478.417 388.201 495.231 379.268C489.788 366.228 478.578 321.214 473.395 285.811C470.679 267.203 467.331 238.436 466.538 226.557C465.744 214.678 459.866 212.291 454.262 211.105C448.657 209.918 440.498 210.1 431.185 211.483Z" fill="white"/>
<path opacity="0.2" d="M416.02 239.48C415.908 242.244 415.871 246.195 415.921 250.85C422.815 244.852 425.965 234.733 425.965 234.733L416.02 239.48Z" fill="#AE2D68"/>
<path d="M434.942 229.7C432.785 231.838 430.726 233.794 428.594 235.789C426.461 237.784 424.303 239.701 422.108 241.644C417.625 245.635 412.926 249.349 408.034 252.767L407.154 253.354L406.522 253.602C404.141 254.524 401.617 254.966 399.082 254.906C397.142 254.875 395.209 254.67 393.303 254.293C389.935 253.641 386.619 252.722 383.383 251.542C380.283 250.433 377.32 249.194 374.393 247.864C371.467 246.534 368.689 245.178 365.713 243.574L372.149 229.973C374.629 231.134 377.357 232.347 379.986 233.39C382.614 234.433 385.342 235.411 387.996 236.22C390.508 237.017 393.074 237.614 395.672 238.006C396.739 238.163 397.818 238.224 398.896 238.189C399.4 238.204 399.902 238.11 400.371 237.915L398.858 238.762C402.987 235.474 406.932 231.938 410.676 228.174C412.622 226.27 414.544 224.262 416.442 222.319C418.339 220.376 420.248 218.277 421.997 216.321L434.942 229.7Z" fill="#AE2D68"/>
<path opacity="0.8" d="M434.942 229.7C432.785 231.838 430.726 233.794 428.594 235.789C426.461 237.784 424.303 239.701 422.108 241.644C417.625 245.635 412.926 249.349 408.034 252.767L407.154 253.354L406.522 253.602C404.141 254.524 401.617 254.966 399.082 254.906C397.142 254.875 395.209 254.67 393.303 254.293C389.935 253.641 386.619 252.722 383.383 251.542C380.283 250.433 377.32 249.194 374.393 247.864C371.467 246.534 368.689 245.178 365.713 243.574L372.149 229.973C374.629 231.134 377.357 232.347 379.986 233.39C382.614 234.433 385.342 235.411 387.996 236.22C390.508 237.017 393.074 237.614 395.672 238.006C396.739 238.163 397.818 238.224 398.896 238.189C399.4 238.204 399.902 238.11 400.371 237.915L398.858 238.762C402.987 235.474 406.932 231.938 410.676 228.174C412.622 226.27 414.544 224.262 416.442 222.319C418.339 220.376 420.248 218.277 421.997 216.321L434.942 229.7Z" fill="white"/>
<path d="M451.286 169.429C448.533 168.581 444.974 171.632 446.425 176.183C447.876 180.734 452.178 182.886 455.564 181.399C458.949 179.913 457.374 171.28 451.286 169.429Z" fill="#AE2D68"/>
<path d="M449.314 176.144C447.466 168.542 456.754 157.706 461.23 171.554C463.983 180.095 451.087 183.395 449.314 176.144Z" fill="#263238"/>
</svg>
