<svg width="43" height="66" viewBox="0 0 43 66" fill="none" xmlns="http://www.w3.org/2000/svg">
<path d="M29.677 30.6092L22.8899 13.4337L27.8556 11.3439L25.4255 5.1944C24.781 3.56346 23.6398 2.21949 22.2528 1.45816C20.8658 0.696827 19.3468 0.580491 18.0298 1.13475L3.13264 7.40421C1.81566 7.95846 0.808631 9.13791 0.333102 10.6831C-0.142427 12.2282 -0.0475067 14.0126 0.596981 15.6435L3.02703 21.793L7.99273 19.7032L14.7799 36.8787L10.1328 44.9558C9.89496 45.7283 9.94228 46.6204 10.2644 47.4358L12.6944 53.5853C13.0166 54.4008 13.5873 55.0728 14.2808 55.4534C14.9742 55.8341 15.7338 55.8923 16.3923 55.6151L26.3237 51.4355L29.9688 60.6597L34.8817 65.7643L34.9345 58.5699L31.2894 49.3457L41.2208 45.166C41.8793 44.8889 42.3828 44.2992 42.6206 43.5266C42.8584 42.754 42.8109 41.8618 42.4886 41.0464L40.0586 34.8969C39.7362 34.0815 39.1656 33.4097 38.4721 33.0292L29.677 30.6092Z" fill="black"/>
</svg>
