<svg width="42" height="39" viewBox="0 0 42 39" fill="none" xmlns="http://www.w3.org/2000/svg">
<path d="M41.5 19.5C41.5 29.9592 32.3574 38.5 21 38.5C9.64262 38.5 0.5 29.9592 0.5 19.5C0.5 9.04084 9.64262 0.5 21 0.5C32.3574 0.5 41.5 9.04084 41.5 19.5Z" fill="#6E5A99" stroke="#422680"/>
<path d="M21.0744 15.049C21.3297 15.0524 21.581 15.1125 21.8102 15.2251C22.0393 15.3377 22.2405 15.4998 22.3992 15.6998L26.5674 20.834C26.8109 21.143 26.9627 21.5143 27.0055 21.9054C27.0482 22.2965 26.9803 22.6917 26.8094 23.0461C26.6706 23.3541 26.446 23.6157 26.1626 23.7996C25.8791 23.9835 25.5487 24.0819 25.2108 24.0831L16.7911 24.0143C16.4533 24.0076 16.1246 23.9038 15.8442 23.7154C15.5637 23.5269 15.3435 23.2617 15.2097 22.9514C15.0446 22.5943 14.9831 22.198 15.0323 21.8076C15.0815 21.4173 15.2393 21.0486 15.4878 20.7436L19.7393 15.6781C19.9012 15.4807 20.105 15.3219 20.3359 15.213C20.5669 15.1042 20.8192 15.0482 21.0744 15.049Z" fill="black"/>
</svg>
