<svg width="42" height="39" viewBox="0 0 42 39" fill="none" xmlns="http://www.w3.org/2000/svg">
<path d="M41.5 19.5C41.5 29.9592 32.3574 38.5 21 38.5C9.64262 38.5 0.5 29.9592 0.5 19.5C0.5 9.04084 9.64262 0.5 21 0.5C32.3574 0.5 41.5 9.04084 41.5 19.5Z" fill="#6E5A99" stroke="#422680"/>
<path d="M21.0012 24C20.7459 23.9987 20.4941 23.9406 20.264 23.8299C20.034 23.7192 19.8315 23.5587 19.6712 23.36L15.4612 18.26C15.2152 17.953 15.0604 17.583 15.0144 17.1923C14.9684 16.8015 15.0331 16.4057 15.2012 16.05C15.3374 15.7408 15.5598 15.4774 15.8418 15.2912C16.1237 15.105 16.4533 15.0039 16.7912 15H25.2112C25.549 15.0039 25.8786 15.105 26.1606 15.2912C26.4425 15.4774 26.6649 15.7408 26.8012 16.05C26.9692 16.4057 27.0339 16.8015 26.988 17.1923C26.942 17.583 26.7872 17.953 26.5412 18.26L22.3312 23.36C22.1709 23.5587 21.9684 23.7192 21.7383 23.8299C21.5083 23.9406 21.2565 23.9987 21.0012 24Z" fill="black"/>
</svg>
